<?xml version="1.0" encoding="UTF-8"?>
<svg version="1.1" xmlns="http://www.w3.org/2000/svg" width="2316" height="1338">
<path d="M0 0 C1.22879883 0.58152832 1.22879883 0.58152832 2.48242188 1.17480469 C35.11772365 16.72816279 65.46279112 37.4903713 93.24267578 60.546875 C95.76933367 62.63615921 98.32467907 64.68971268 100.875 66.75 C105.2640461 70.34283234 109.49480786 74.08306326 113.6875 77.90234375 C115.66384372 79.69507446 117.6645673 81.44795227 119.6875 83.1875 C130.73534768 92.83491629 141.22345631 103.08083236 151.52758789 113.51147461 C153.67599611 115.68339385 155.83795697 117.84166545 158 120 C159.66666667 121.66666667 161.33333333 123.33333333 163 125 C161.6403163 128.69287611 159.9636459 131.84435873 157.83203125 135.1484375 C156.87490234 136.63827148 156.87490234 136.63827148 155.8984375 138.15820312 C155.21007813 139.21974609 154.52171875 140.28128906 153.8125 141.375 C153.08952827 142.49654149 152.36687703 143.61828963 151.64453125 144.74023438 C146.3464121 152.95950004 141.00099748 161.14813908 135.64770508 169.33154297 C131.05446984 176.35988381 126.5172774 183.42264082 122 190.5 C116.87578862 198.52826155 111.71443033 206.53003781 106.5 214.5 C99.17251115 225.70097852 91.95753167 236.97237824 84.75488281 248.25390625 C81.18252783 253.84403547 77.59197389 259.42246277 74 265 C70.7369879 263.9123293 70.12160072 263.24933287 68 260.6875 C56.3095729 246.95124815 43.80068245 233.6397215 30 222 C28.89164708 221.03045145 27.78505833 220.05888453 26.6796875 219.0859375 C18.93919922 212.28701078 11.05165635 205.76041905 2.89257812 199.47167969 C0.86731599 197.89682415 -1.13739306 196.29808302 -3.140625 194.6953125 C-59.82639622 149.56110679 -125.99797997 125.44965601 -198.86254883 132.77416992 C-253.47443686 139.40960436 -308.99281722 165.95751045 -343.5 209.75 C-345.35347047 212.15178069 -347.17932432 214.57331166 -349 217 C-349.42812988 217.56203125 -349.85625977 218.1240625 -350.29736328 218.703125 C-357.55107812 228.25938495 -363.47134498 238.36315401 -369 249 C-369.38542969 249.73283203 -369.77085937 250.46566406 -370.16796875 251.22070312 C-399.05674983 306.77984353 -403.71690553 374.58335662 -385.29736328 434.09716797 C-368.21551699 487.22745083 -332.02193957 530.69751177 -282.44946289 556.41333008 C-259.99471328 567.64638158 -235.89306612 574.8160711 -211 578 C-209.92177979 578.14139404 -209.92177979 578.14139404 -208.82177734 578.28564453 C-165.83570777 583.2802845 -121.96507265 574.52439347 -84 554 C-83.4013916 553.68063477 -82.8027832 553.36126953 -82.18603516 553.03222656 C-64.88892693 543.74487219 -48.88220993 531.57120481 -34.4765625 518.265625 C-33.11987465 517.024491 -31.75528042 515.79112851 -30.35668945 514.59741211 C-24.46730891 509.56381198 -18.99038461 504.1427 -13.52709961 498.6574707 C-11.94040054 497.06541034 -10.34842258 495.4787701 -8.75585938 493.89257812 C-3.29340196 488.43400953 2.00472248 482.8938208 7 477 C7.94891256 475.91655806 8.89938239 474.83447763 9.8515625 473.75390625 C17.06965452 465.47781287 23.81241701 456.900811 30.40625 448.12158203 C31.94294912 446.07594549 33.48625421 444.03546807 35.03125 441.99609375 C46.59806036 426.69572872 57.76617811 411.22796925 68 395 C68.47260254 394.25137695 68.94520508 393.50275391 69.43212891 392.73144531 C71.4140936 389.59074267 73.39565972 386.44980265 75.37255859 383.3059082 C79.08425252 377.41399806 82.87475245 371.57688255 86.6875 365.75 C91.52427663 358.34086057 96.17847484 350.85524915 100.67724609 343.23730469 C110.49359779 326.63393685 120.52748035 310.19784849 131 294 C131.84884766 292.68443115 131.84884766 292.68443115 132.71484375 291.34228516 C149.09747025 265.98357673 165.87549821 240.863327 183 216 C183.65693848 215.04416016 184.31387695 214.08832031 184.99072266 213.10351562 C193.40710792 200.87093102 201.93537856 188.76200791 211 177 C211.68521729 176.10643799 211.68521729 176.10643799 212.38427734 175.19482422 C217.93818951 167.96745394 223.68084467 160.93905922 229.65136719 154.05175781 C232.75895101 150.46577231 235.77894399 146.82605774 238.75 143.125 C241.92166072 139.21481178 245.23120053 135.60950528 248.8828125 132.14453125 C250.72181515 130.28177764 252.41213791 128.37689436 254.11499023 126.39160156 C257.99579394 121.94365604 262.09876961 117.7567709 266.27734375 113.58984375 C267.04752335 112.81870743 267.81770294 112.04757111 268.61122131 111.25306702 C270.22941373 109.63419847 271.84885212 108.01657449 273.46948242 106.40014648 C275.93067232 103.94431282 278.38647809 101.48318635 280.84179688 99.02148438 C282.42415867 97.43978347 284.00683067 95.85839283 285.58984375 94.27734375 C286.31405014 93.55111313 287.03825653 92.82488251 287.78440857 92.0766449 C291.82217598 88.0571238 295.95220259 84.20500994 300.27215576 80.48973083 C302.66957961 78.42269485 304.9874897 76.27283222 307.3125 74.125 C311.74496474 70.08720678 316.27742177 66.22692566 320.9453125 62.46484375 C323.1831158 60.65914825 325.40481899 58.84020688 327.6171875 57.00390625 C334.63295383 51.20228839 341.75332172 45.59420906 349.125 40.25 C350.14315796 39.5089502 350.14315796 39.5089502 351.18188477 38.75292969 C362.4251579 30.69765273 374.24997138 23.52965472 386.1875 16.5625 C386.81418579 16.19593292 387.44087158 15.82936584 388.08654785 15.45169067 C398.56927528 9.32757621 409.13557825 3.42335744 420 -2 C421.01682861 -2.51433594 421.01682861 -2.51433594 422.05419922 -3.0390625 C502.87675597 -43.67328628 601.34255386 -51.00758226 721.31140137 -21.75379944 C737.28343956 -16.45058735 752.79248721 -10.21965296 768 -3 C769.01529785 -2.51917969 770.0305957 -2.03835937 771.07666016 -1.54296875 C802.85738389 13.63887375 832.38463598 32.86476354 858.41796875 56.6640625 C860.52428031 58.56962122 862.65559891 60.43254332 864.8046875 62.2890625 C869.00500653 65.95838575 872.99689548 69.80459163 876.9375 73.75 C877.63770264 74.4510083 878.33790527 75.1520166 879.05932617 75.87426758 C883.62643899 80.49541653 887.86314011 85.20280453 891.875 90.31640625 C893.82635634 92.78071104 895.85639586 95.15556805 897.92260742 97.52368164 C904.91363633 105.57816234 911.02983035 114.17101481 917 123 C917.47469727 123.7017334 917.94939453 124.4034668 918.43847656 125.12646484 C925.13550693 135.09795892 931.17542734 145.34663962 936.86962891 155.91992188 C937.88491045 157.78821533 938.92538382 159.63837745 939.98046875 161.484375 C966.37281308 208.71850876 980.07771534 263.41031919 985 317 C985.0942627 317.90645264 985.18852539 318.81290527 985.28564453 319.74682617 C986.37424118 331.44388474 986.24387056 343.20034111 986.25 354.9375 C986.25101212 356.67800629 986.25101212 356.67800629 986.25204468 358.45367432 C986.23539093 376.50290954 985.64145429 394.12036891 983 412 C982.82307617 413.23218262 982.64615234 414.46436523 982.46386719 415.73388672 C975.86190586 460.75607033 962.49052711 503.37161028 942 544 C941.5992627 544.80260254 941.19852539 545.60520508 940.78564453 546.43212891 C918.41641009 591.02502793 884.31051328 633.24530431 845 664 C844.1028125 664.72703125 843.205625 665.4540625 842.28125 666.203125 C772.07388876 721.99950156 679.22171047 749.14879512 590 747 C589.21318848 746.98211426 588.42637695 746.96422852 587.61572266 746.94580078 C510.08912833 744.97197744 431.56105645 720.37093608 371 671 C369.97519531 670.17628906 368.95039062 669.35257813 367.89453125 668.50390625 C365.24373737 666.35802549 362.61745364 664.18638931 360 662 C359.49694336 661.58186035 358.99388672 661.1637207 358.47558594 660.73291016 C351.46380605 654.89827486 344.6287378 648.91574471 337.94921875 642.703125 C335.8209945 640.72829944 333.63751399 638.83438278 331.4296875 636.94921875 C326.08300363 632.28787736 321.1032263 627.25282123 316.09985352 622.23022461 C314.4407268 620.56573723 312.77631949 618.90666553 311.11132812 617.24804688 C305.52950177 611.66971203 300.12407689 606.00544972 295 600 C293.38032183 598.22429779 291.75588282 596.45291693 290.125 594.6875 C286.07921256 590.25234354 282.25316054 585.69041972 278.484375 581.01953125 C275.53386136 577.43345099 272.49175094 573.93518746 269.4375 570.4375 C265.10853115 565.47142352 260.84591752 560.47707571 256.796875 555.27734375 C255.53329123 553.67588866 254.22672971 552.10787521 252.890625 550.56640625 C251.89289063 549.38884766 251.89289063 549.38884766 250.875 548.1875 C250.27429687 547.50042969 249.67359375 546.81335938 249.0546875 546.10546875 C248 544 248 544 248.73168945 541.69677734 C250.05419155 538.88477385 251.55290019 536.35663442 253.23828125 533.74609375 C253.88708252 532.73675781 254.53588379 531.72742188 255.2043457 530.6875 C255.90003662 529.615 256.59572754 528.5425 257.3125 527.4375 C258.0370429 526.31402156 258.76124146 525.19032097 259.48510742 524.06640625 C261.6507919 520.70706512 263.82475851 517.35316099 266 514 C266.60972656 513.05914551 267.21945312 512.11829102 267.84765625 511.14892578 C271.0690413 506.18017783 274.29855896 501.21676841 277.53125 496.25537109 C284.32194674 485.82776862 291.05091618 475.36167044 297.75 464.875 C303.55707885 455.78586808 309.41428841 446.73169232 315.328125 437.71166992 C318.72313289 432.52430286 322.07874091 427.31486813 325.390625 422.07421875 C326.12562279 420.9140446 326.86064859 419.7538882 327.59570312 418.59375 C329.00751763 416.36480302 330.41094619 414.13123907 331.81054688 411.89453125 C332.44541016 410.89164063 333.08027344 409.88875 333.734375 408.85546875 C334.29350586 407.96496826 334.85263672 407.07446777 335.42871094 406.15698242 C337 404 337 404 340 402 C340.36125977 402.44166504 340.72251953 402.88333008 341.09472656 403.33837891 C348.34879523 412.19860744 355.65994533 420.99871834 363.13671875 429.671875 C365.94552933 432.93028538 368.72554576 436.21232892 371.5 439.5 C373.33235796 441.6674931 375.16583816 443.83403319 377 446 C377.4846875 446.57250488 377.969375 447.14500977 378.46875 447.73486328 C379.97649097 449.51303565 381.48781914 451.28810264 383 453.0625 C383.43763672 453.57941406 383.87527344 454.09632813 384.32617188 454.62890625 C392.81194648 464.56347164 401.81832653 473.98521051 411.0715332 483.2019043 C412.70056572 484.82552229 414.32410728 486.45449603 415.94726562 488.08398438 C420.9179162 493.05774963 425.92161462 497.94257665 431.27172852 502.51245117 C433.44774501 504.38538075 435.52711124 506.34856846 437.61181641 508.32177734 C444.72406701 515.03469539 452.20112325 521.10807068 460 527 C460.71430176 527.54414551 461.42860352 528.08829102 462.16455078 528.64892578 C478.46596302 541.03492269 495.25765624 552.61321313 514 561 C514.74797852 561.33483398 515.49595703 561.66966797 516.26660156 562.01464844 C534.69738931 570.11567566 554.08884152 575.14675152 574 578 C574.63502441 578.0942627 575.27004883 578.18852539 575.92431641 578.28564453 C624.36022211 584.65489207 678.35478492 571.8658283 719 545 C719.57911133 544.61763184 720.15822266 544.23526367 720.75488281 543.84130859 C766.94703983 512.92215726 796.78681999 464.0318073 807.72998047 409.92773438 C819.41165079 348.37136455 809.13443844 279.66204424 773.53222656 227.37768555 C739.20859587 178.10189177 688.8837723 146.50433843 630 135 C629.17177734 134.83338867 628.34355469 134.66677734 627.49023438 134.49511719 C584.75981958 126.24620018 539.71114266 133.13551707 500 150 C499.23139648 150.32323242 498.46279297 150.64646484 497.67089844 150.97949219 C475.15042808 160.70578042 454.38217591 176.10913438 435 191 C434.33516602 191.50748779 433.67033203 192.01497559 432.98535156 192.5378418 C426.47913001 197.52968419 420.10946279 202.67324011 413.875 208 C413.36211426 208.43739502 412.84922852 208.87479004 412.32080078 209.32543945 C401.9759319 218.25120863 392.15676168 227.67920026 382.51635742 237.35327148 C380.67545292 239.19958246 378.82919728 241.04042273 376.98242188 242.88085938 C371.10782844 248.75180172 365.35833519 254.64762894 360 261 C358.95543713 262.19213405 357.90855473 263.38223965 356.859375 264.5703125 C350.1459953 272.22857773 343.69455755 280.03001681 337.47607422 288.09423828 C335.88128521 290.15327285 334.27187709 292.2002889 332.66015625 294.24609375 C283.40402222 356.90017064 241.30694028 426.5071757 199.7109375 494.36328125 C183.64671622 520.52385125 166.19647274 545.43403864 146.73730469 569.18652344 C143.24279314 573.45383935 139.82071368 577.76912767 136.4375 582.125 C131.25907114 588.77175485 125.81578621 595.17154727 120.28369141 601.52539062 C119.21020096 602.75853674 118.14160782 603.99594387 117.07421875 605.234375 C115.39818205 607.17041739 113.70288041 609.0875343 112 611 C111.32066406 611.77214844 110.64132812 612.54429687 109.94140625 613.33984375 C103.8395809 620.14459937 97.45995431 626.67229845 91.02026367 633.15597534 C90.02267936 634.16094902 89.02669191 635.16751086 88.0324707 636.17581177 C81.37225868 642.92142916 74.41392208 649.08097708 67 655 C65.89828422 655.93491198 64.80193811 656.8762511 63.71484375 657.828125 C12.94290294 702.10182866 -52.43674438 731.38487608 -118.6875 742.25 C-120.05430908 742.47659302 -120.05430908 742.47659302 -121.44873047 742.70776367 C-141.35889128 745.77152995 -161.22406319 746.37387634 -181.34094238 746.31805801 C-183.40421629 746.31242017 -185.46748198 746.30959797 -187.53076172 746.30697632 C-207.4963477 746.27009549 -227.20731754 745.88011067 -247 743 C-248.23298828 742.82839355 -249.46597656 742.65678711 -250.73632812 742.47998047 C-317.18448492 733.02961348 -378.07967449 706.4992386 -430 664 C-430.5470459 663.55736816 -431.0940918 663.11473633 -431.65771484 662.65869141 C-440.92028297 655.11131316 -449.41327322 646.79411209 -457.875 638.375 C-458.40920563 637.8460614 -458.94341125 637.3171228 -459.49380493 636.77215576 C-466.46986761 629.84933319 -472.88185903 622.70681265 -479 615 C-480.06021577 613.72897929 -481.12480672 612.46158498 -482.1953125 611.19921875 C-529.92236725 554.28864918 -559.75150812 480.18755001 -567.72363281 406.55029297 C-567.90702633 404.85795319 -568.10159196 403.1667847 -568.30761719 401.47705078 C-571.91055276 371.60223644 -571.64772184 339.85411962 -568 310 C-567.87641113 308.94844727 -567.75282227 307.89689453 -567.62548828 306.81347656 C-561.35247878 254.85014692 -546.51812322 206.7507457 -523 160 C-522.5477002 159.08895508 -522.09540039 158.17791016 -521.62939453 157.23925781 C-512.02676207 137.94400337 -500.33444201 119.91896943 -487 103 C-486.25621094 102.04351562 -485.51242187 101.08703125 -484.74609375 100.1015625 C-475.02463699 87.89155603 -463.94773929 76.84931092 -452.96362305 65.78839111 C-451.87940777 64.69611997 -450.79667577 63.60237409 -449.71557617 62.50701904 C-442.81715699 55.52729362 -435.73933467 49.05993884 -428 43 C-427.28610107 42.43216797 -426.57220215 41.86433594 -425.83666992 41.27929688 C-368.39598604 -4.1732164 -301.42052629 -29.79790009 -229 -39 C-228.11441406 -39.11859375 -227.22882813 -39.2371875 -226.31640625 -39.359375 C-150.19416412 -49.21186859 -68.7977289 -32.74374667 0 0 Z " fill="#5C005E" transform="translate(1330,210)"/>
<path d="M0 0 C62.27901449 -0.06021772 62.27901449 -0.06021772 81.79289246 -0.07695007 C82.82714666 -0.07783807 82.82714666 -0.07783807 83.88229489 -0.07874402 C107.10705957 -0.09863063 130.33182514 -0.11437789 153.55659485 -0.12702942 C154.31495392 -0.12744359 155.073313 -0.12785776 155.85465265 -0.12828448 C172.33845279 -0.13726459 188.82225321 -0.14557493 205.30605404 -0.15319599 C213.39047814 -0.15693778 221.47490217 -0.16082747 229.55932617 -0.16479492 C230.36379529 -0.1651872 231.1682644 -0.16557948 231.99711137 -0.16598364 C258.04131357 -0.17875263 284.08549616 -0.20127528 310.1296865 -0.22889166 C336.90821617 -0.25723493 363.686735 -0.27566687 390.46527942 -0.28174497 C394.25328438 -0.28260935 398.04128929 -0.28358626 401.8292942 -0.28463173 C402.57477958 -0.284834 403.32026496 -0.28503627 404.0883408 -0.28524467 C416.05674061 -0.28878072 428.02510676 -0.30267025 439.99349288 -0.3204961 C452.04505489 -0.33822254 464.09658376 -0.34488782 476.14815833 -0.34050413 C482.67012463 -0.33843254 489.19201198 -0.34146896 495.71396255 -0.35761642 C501.69753061 -0.37232193 507.68093527 -0.37288386 513.66451118 -0.36269668 C515.81696001 -0.36143946 517.96941946 -0.36515411 520.12184771 -0.37464955 C561.88270502 -0.54800437 601.76663567 10.59904857 636 35 C636.58426758 35.41604492 637.16853516 35.83208984 637.77050781 36.26074219 C646.44886848 42.52485941 654.29139172 49.59745834 662 57 C662.77174561 57.73089844 662.77174561 57.73089844 663.55908203 58.4765625 C670.99882033 65.54089032 677.55194966 73.02325652 683.68847656 81.24414062 C684.54319411 82.38843113 685.40424261 83.52802834 686.27246094 84.66210938 C701.61454389 104.71101403 712.06695522 127.60327029 718.375 152 C718.6016333 152.86270508 718.8282666 153.72541016 719.06176758 154.61425781 C719.81119494 157.729215 720.41942636 160.84892483 721 164 C721.1313031 164.67579102 721.2626062 165.35158203 721.39788818 166.04785156 C725.08088603 185.79375326 724.45932079 205.92365737 724.39111328 225.92382812 C724.37402232 230.98315915 724.38417546 236.04201686 724.40143108 241.10133171 C724.51946825 281.79521573 724.51946825 281.79521573 721 300 C720.78633789 301.17788086 720.57267578 302.35576172 720.35253906 303.56933594 C719.79572328 306.36776114 719.15648245 309.11434678 718.4375 311.875 C718.18846924 312.84638916 717.93943848 313.81777832 717.68286133 314.81860352 C704.95010156 362.01626002 675.50893384 401.81696053 636 430 C637.9207158 436.13373509 640.19768967 441.96617159 642.88671875 447.80078125 C643.2604512 448.6218486 643.63418365 449.44291595 644.01924133 450.28886414 C644.8208803 452.04900397 645.62449713 453.80824414 646.42993164 455.56665039 C648.5914779 460.28629915 650.73809165 465.01274074 652.88671875 469.73828125 C653.32208954 470.6947757 653.75746033 471.65127014 654.20602417 472.63674927 C658.19164902 481.40064414 662.10494633 490.19557 666 499 C671.7688417 512.02952777 677.61518018 525.02246169 683.5 538 C689.40374186 551.0199954 695.2702191 564.05501922 701.0625 577.125 C706.73044865 589.91417637 712.44153627 602.68317429 718.1875 615.4375 C718.76141479 616.71149658 718.76141479 616.71149658 719.34692383 618.01123047 C720.85353568 621.35549337 722.36023552 624.6997166 723.86712646 628.04385376 C732.84937898 647.98020238 741.76656521 667.94581711 750.69458008 687.90649414 C755.04249746 697.62690868 759.39366427 707.34585536 763.75 717.0625 C764.26933105 718.22104492 764.78866211 719.37958984 765.32373047 720.57324219 C767.70410147 725.88266977 770.08568458 731.19154722 772.47050476 736.49897766 C775.45749086 743.14657755 778.43866395 749.79674214 781.41259766 756.45019531 C782.48630919 758.85126662 783.56128325 761.2517288 784.63818359 763.65136719 C786.20194586 767.14008554 787.75821412 770.63205136 789.3125 774.125 C789.78703613 775.18041992 790.26157227 776.23583984 790.75048828 777.32324219 C791.17958496 778.29165039 791.60868164 779.26005859 792.05078125 780.2578125 C792.61792847 781.52842529 792.61792847 781.52842529 793.1965332 782.82470703 C794 785 794 785 794 788 C723.38 788 652.76 788 580 788 C572.55750959 771.97002066 565.1410535 755.96983829 558.01171875 739.8046875 C554.96950094 732.92138546 551.89443187 726.05309592 548.8125 719.1875 C547.71998322 716.75263503 546.62751673 714.31774759 545.53515625 711.8828125 C545.25409027 711.25634827 544.97302429 710.62988403 544.68344116 709.98443604 C541.03296638 701.84647406 537.39173792 693.70437441 533.75 685.5625 C533.02937931 683.95149692 532.30875756 682.34049432 531.58813477 680.72949219 C529.02394449 674.99693129 526.45997163 669.26427315 523.89599609 663.53161621 C521.34746306 657.83351828 518.79882051 652.13546935 516.25 646.4375 C515.89329224 645.64006378 515.53658447 644.84262756 515.16906738 644.02102661 C510.61712866 633.84536697 506.06134176 623.67144874 501.5 613.5 C494.38601751 597.63635459 487.28784831 581.76564408 480.18945312 565.89501953 C476.97875596 558.71662431 473.76735528 551.53854383 470.55599976 544.36044312 C469.50254682 542.00569282 468.44914194 539.65092103 467.39575195 537.29614258 C464.12520959 529.98514813 460.85437908 522.67428303 457.58248901 515.3638916 C456.06512998 511.97360361 454.5479402 508.58323989 453.03076172 505.19287109 C452.31909414 503.60266435 451.60734698 502.01249322 450.89550781 500.42236328 C450.56131836 499.67583496 450.22712891 498.92930664 449.8828125 498.16015625 C449.59414307 497.5153833 449.30547363 496.87061035 449.00805664 496.20629883 C444.65635035 486.47765538 440.32850628 476.73913914 436 467 C294.43 466.67 152.86 466.34 7 466 C7 402.64 7 339.28 7 274 C22.59975098 273.9906543 38.19950195 273.98130859 54.27197266 273.97167969 C64.68746987 273.96485378 75.10296666 273.95794596 85.51846313 273.95013428 C86.1800972 273.94963908 86.84173126 273.94914388 87.52341484 273.94863368 C109.79144404 273.93189591 132.05946427 273.90968502 154.32748413 273.88336182 C155.41737847 273.88207555 155.41737847 273.88207555 156.52929089 273.8807633 C172.31941491 273.86209855 188.10953771 273.84254614 203.89965949 273.82207905 C211.6429043 273.81204769 219.38614935 273.80221253 227.12939453 273.79248047 C227.89994881 273.79150866 228.67050308 273.79053686 229.46440749 273.7895356 C254.44940063 273.75811705 279.43438297 273.73965901 304.41939245 273.72790753 C330.09039935 273.71576506 355.76136107 273.69057617 381.43233786 273.64892386 C385.05649871 273.6430496 388.68065978 273.63732479 392.30482101 273.63169098 C393.01812212 273.63057752 393.73142323 273.62946406 394.46633953 273.62831686 C405.95789976 273.61076324 417.4494253 273.60700113 428.94099714 273.60837079 C440.48824688 273.60945369 452.03538303 273.5957449 463.58260401 273.56783572 C469.84147202 273.5531439 476.10017217 273.54502605 482.35905457 273.55419731 C488.08470649 273.56244557 493.81002022 273.55243604 499.53562181 273.52766338 C501.61107748 273.52194973 503.68656489 273.5230412 505.76201124 273.53148755 C508.57613355 273.54196217 511.38910506 273.52800975 514.2031498 273.50780869 C515.01522996 273.51671239 515.82731013 273.5256161 516.66399878 273.53478962 C521.87990111 273.4626063 524.86192133 272.45343913 529 269 C531.13934577 265.28478387 531.25680151 261.96463038 531.2746582 257.72851562 C531.28419022 256.48372437 531.29372223 255.23893311 531.30354309 253.9564209 C531.30328167 252.60636364 531.30234466 251.25630637 531.30078125 249.90625 C531.30467138 248.51289747 531.30900671 247.11954612 531.31376648 245.72619629 C531.32121349 242.81107736 531.32094807 239.89607958 531.31567383 236.98095703 C531.30987488 233.25182404 531.32682726 229.52318704 531.3500185 225.79413605 C531.36477287 222.91844807 531.36562536 220.04287916 531.36250877 217.16716003 C531.36302093 215.79248572 531.36823879 214.41780455 531.37832069 213.04316711 C531.39070218 211.11931167 531.38194128 209.19535558 531.37231445 207.27148438 C531.37294388 206.17848022 531.3735733 205.08547607 531.3742218 203.95935059 C530.83595528 199.70273233 529.20460989 197.05403365 526 194.25 C521.67585546 191.54740966 517.41235967 191.85526023 512.49420643 191.8613348 C511.61110221 191.85849258 510.72799798 191.85565036 509.81813303 191.85272202 C506.83209999 191.84434006 503.84610557 191.84310407 500.86006165 191.84178162 C498.70845055 191.83721865 496.55684034 191.83221902 494.40523118 191.82681805 C488.47179122 191.81319733 482.53835701 191.80580723 476.60490549 191.79939139 C470.21429859 191.79140468 463.82370373 191.77770098 457.43310547 191.76467896 C446.35398544 191.74289161 435.27486436 191.72472082 424.19573402 191.70907402 C412.57333226 191.69264489 400.95093674 191.67416715 389.32854271 191.65294075 C388.60646226 191.65162314 387.8843818 191.65030554 387.14042012 191.648948 C383.47348355 191.64224611 379.80654704 191.6355075 376.13961055 191.62875474 C350.15256869 191.58096506 324.165521 191.5377877 298.1784668 191.49731445 C272.92911353 191.4579796 247.67976508 191.41656073 222.43041992 191.37231445 C221.26340709 191.37027066 221.26340709 191.37027066 220.07281825 191.36818558 C212.25988568 191.35450045 204.44695319 191.34077289 196.63402075 191.32701423 C180.71753668 191.29898611 164.80105212 191.27124125 148.88456726 191.2436676 C148.1527194 191.2423994 147.42087154 191.2411312 146.66684648 191.23982458 C124.23048035 191.20096012 101.79411244 191.16329648 79.35774231 191.1268158 C78.10049261 191.12477107 76.84324291 191.12272635 75.54789474 191.12061966 C50.36526424 191.07973669 25.18263188 191.04001921 0 191 C0 127.97 0 64.94 0 0 Z " fill="#5C005E" transform="translate(0,169)"/>
<path d="M0 0 C74.20641283 0 74.20641283 0 88.08984375 12.94921875 C97.08879753 22.63308234 99.53686295 33.38218204 99.3125 46.3671875 C98.19658781 59.3396667 92.78775778 67.91654501 83.3203125 76.359375 C80.07915023 78.6511059 76.5803136 80.30297275 73 82 C73.65484375 82.88558594 74.3096875 83.77117187 74.984375 84.68359375 C80.17696691 91.72408656 85.31776308 98.79904003 90.375 105.9375 C90.86194336 106.62191162 91.34888672 107.30632324 91.85058594 108.01147461 C95.07105818 112.57417867 98.08848054 117.23446937 101 122 C84.65098552 124.34243778 84.65098552 124.34243778 79.18261719 120.83398438 C75.85902433 117.50391278 73.63573165 113.44822165 71.36865234 109.35888672 C68.82173822 104.96925342 65.79673664 100.89512195 62.875 96.75 C61.7619859 95.14493639 60.65475692 93.53583808 59.5546875 91.921875 C59.08530762 91.23706055 58.61592773 90.55224609 58.13232422 89.84667969 C57 88 57 88 56 85 C43.46 85 30.92 85 18 85 C18 97.21 18 109.42 18 122 C12.06 122 6.12 122 0 122 C0 81.74 0 41.48 0 0 Z M18 15 C18 33.15 18 51.3 18 70 C26.8790625 70.061875 26.8790625 70.061875 35.9375 70.125 C37.78722412 70.14320801 39.63694824 70.16141602 41.54272461 70.18017578 C43.03759472 70.18602654 44.53246807 70.19112071 46.02734375 70.1953125 C46.78019653 70.20554443 47.53304932 70.21577637 48.30871582 70.22631836 C57.89099195 70.22940593 66.49503202 68.22021923 74 62 C79.85616673 54.59088218 81.79737344 47.31745627 81 38 C79.76730843 31.15751714 77.5537945 25.40048637 72 21 C63.55367802 16.16096137 55.90090452 14.83854012 46.3203125 14.90234375 C45.59900146 14.90335083 44.87769043 14.90435791 44.13452148 14.90539551 C41.4646646 14.91058978 38.79483054 14.92455078 36.125 14.9375 C30.14375 14.958125 24.1625 14.97875 18 15 Z " fill="#5C005E" transform="translate(0,1052)"/>
<path d="M0 0 C2.29387812 1.43319353 4.40303018 2.96197431 6.51953125 4.64453125 C7.13441406 5.12277344 7.74929687 5.60101562 8.3828125 6.09375 C17.429623 14.05735037 21.76909125 26.51417787 22.73046875 38.2109375 C23.26492386 52.33288602 19.3477714 64.13080882 10.33203125 74.83203125 C2.33483063 83.35884781 -7.27766593 88.34707679 -18.984375 88.92578125 C-32.04481267 89.29793976 -41.94714889 87.91609531 -52.48046875 79.64453125 C-53.47046875 78.65453125 -54.46046875 77.66453125 -55.48046875 76.64453125 C-55.81046875 91.49453125 -56.14046875 106.34453125 -56.48046875 121.64453125 C-62.42046875 121.64453125 -68.36046875 121.64453125 -74.48046875 121.64453125 C-74.48046875 80.06453125 -74.48046875 38.48453125 -74.48046875 -4.35546875 C-68.87046875 -4.35546875 -63.26046875 -4.35546875 -57.48046875 -4.35546875 C-57.15046875 -0.39546875 -56.82046875 3.56453125 -56.48046875 7.64453125 C-55.32546875 6.57203125 -54.17046875 5.49953125 -52.98046875 4.39453125 C-38.52098572 -8.22882695 -16.56045816 -9.0495732 0 0 Z M-50.48046875 20.64453125 C-56.70686183 29.81374693 -57.45526643 38.80194921 -56.48046875 49.64453125 C-54.71881469 57.77360964 -50.04850519 64.54258759 -43.16796875 69.21484375 C-34.96334679 73.93789915 -26.89186899 75.05419011 -17.53125 72.99609375 C-8.783433 70.14115766 -2.79385948 65.68026432 1.45703125 57.45703125 C5.62381099 48.48786129 6.05015387 38.28436964 3.01953125 28.83203125 C-0.0897011 21.43533114 -4.8677202 15.52872704 -12.23046875 12.14453125 C-26.16738342 6.7301903 -40.44901507 9.23096618 -50.48046875 20.64453125 Z " fill="#5C005E" transform="translate(2132.48046875,1086.35546875)"/>
<path d="M0 0 C5.61 0 11.22 0 17 0 C17 42.57 17 85.14 17 129 C11.39 129 5.78 129 0 129 C-0.33 125.37 -0.66 121.74 -1 118 C-1.99 118.9075 -2.98 119.815 -4 120.75 C-14.49925845 129.72517255 -26.41197932 130.82786195 -39.71923828 130.1953125 C-51.35601955 129.19879944 -61.23975493 122.58392349 -69.14453125 114.33203125 C-78.40505563 102.69301429 -80.08949777 89.35763893 -79 75 C-77.82908017 66.56740927 -74.85082184 59.94577831 -70 53 C-69.278125 51.948125 -68.55625 50.89625 -67.8125 49.8125 C-57.27840085 39.27840085 -44.84103353 35.69760136 -30.42431641 35.68530273 C-18.52047583 35.87620699 -9.48101253 39.51898747 -1 48 C-0.67 32.16 -0.34 16.32 0 0 Z M-55 62 C-62.00088093 71.02745173 -62.01387237 81.05484583 -61 92 C-59.28927672 99.59069433 -54.07102327 106.22867842 -47.6875 110.57421875 C-39.48356704 115.28338421 -31.36481993 116.45791032 -22.015625 114.31640625 C-12.88927769 111.2784923 -7.34056305 106.80639458 -3 98.2109375 C1.17062781 88.98994008 1.33847999 78.86671996 -1.96875 69.3125 C-5.87890947 60.54426361 -12.55873626 55.25863778 -21.3125 51.625 C-34.88353638 49.32482434 -45.44610464 51.84898618 -55 62 Z " fill="#5C005E" transform="translate(298,1045)"/>
<path d="M0 0 C0.33 0 0.66 0 1 0 C0.42596293 9.08969298 -0.4043825 18.10187273 -1.55053711 27.13647461 C-1.70352768 28.36597839 -1.85651825 29.59548218 -2.0141449 30.86224365 C-2.42871514 34.18652945 -2.84659072 37.51036264 -3.26639628 40.8339889 C-3.61818519 43.62238271 -3.96770352 46.41105938 -4.31727511 49.19973189 C-5.14190747 55.77755303 -5.97046274 62.35487171 -6.80151367 68.93188477 C-7.65636019 75.69779645 -8.5043711 82.46454063 -9.34910387 89.23172182 C-10.07807394 95.06951167 -10.81132126 100.90675356 -11.54796606 106.74357992 C-11.98642148 110.21805893 -12.42327567 113.69271953 -12.85597038 117.16792107 C-13.33777932 121.03583862 -13.82851026 124.90259586 -14.32006836 128.76928711 C-14.46091858 129.90966934 -14.6017688 131.05005157 -14.74688721 132.22499084 C-16.59519743 146.61093122 -16.59519743 146.61093122 -20.44140625 150.4140625 C-21.98634766 151.50847656 -21.98634766 151.50847656 -23.5625 152.625 C-24.72855954 153.46909288 -25.89388448 154.3142012 -27.05859375 155.16015625 C-27.68749512 155.60891113 -28.31639648 156.05766602 -28.96435547 156.52001953 C-31.18877849 158.13724817 -33.36352755 159.80868266 -35.53515625 161.49609375 C-36.67778931 162.38337158 -36.67778931 162.38337158 -37.84350586 163.28857422 C-39.34642604 164.45713688 -40.84856225 165.62670864 -42.34985352 166.79736328 C-43.38710571 167.5956958 -43.38710571 167.5956958 -44.4453125 168.41015625 C-45.05906738 168.88590088 -45.67282227 169.36164551 -46.30517578 169.85180664 C-48 171 -48 171 -51 172 C-59.52747071 151.9603209 -66.1561533 130.62048463 -58.00056744 109.49769783 C-51.78785327 94.17038958 -43.73817765 79.6079362 -35.6805253 65.19061947 C-31.80412569 58.24060124 -28.10176935 51.2024838 -24.40657091 44.15493965 C-18.67085977 33.22426656 -12.84799755 22.34505171 -6.88769531 11.53515625 C-6.01157341 9.94483582 -6.01157341 9.94483582 -5.11775208 8.3223877 C-1.13192245 1.13192245 -1.13192245 1.13192245 0 0 Z " fill="#FAC801" transform="translate(707,0)"/>
<path d="M0 0 C-1.39984214 2.93598143 -2.99371441 5.61333174 -4.80078125 8.31640625 C-5.35886475 9.15292725 -5.91694824 9.98944824 -6.49194336 10.85131836 C-7.09272705 11.7460083 -7.69351074 12.64069824 -8.3125 13.5625 C-8.93842041 14.49779541 -9.56434082 15.43309082 -10.20922852 16.39672852 C-15.8488094 24.80817442 -21.56359164 33.16708377 -27.29638672 41.51513672 C-30.37369597 46.00365113 -33.43599607 50.5023975 -36.5 55 C-41.68001634 62.60118994 -46.86677 70.19769302 -52.06616211 77.78564453 C-55.05527997 82.14993143 -58.03427136 86.52086548 -61.00390625 90.8984375 C-61.679375 91.89294922 -62.35484375 92.88746094 -63.05078125 93.91210938 C-64.36108218 95.84194094 -65.66975934 97.77287631 -66.9765625 99.70507812 C-67.57339844 100.58357422 -68.17023437 101.46207031 -68.78515625 102.3671875 C-69.30988525 103.14175293 -69.83461426 103.91631836 -70.37524414 104.71435547 C-70.91141357 105.46861816 -71.44758301 106.22288086 -72 107 C-72.83241211 108.3454187 -72.83241211 108.3454187 -73.68164062 109.71801758 C-76.90375976 112.88957904 -79.99927576 112.92257104 -84.30859375 113.14453125 C-85.11232925 113.20404465 -85.91606476 113.26355804 -86.74415588 113.32487488 C-89.30763326 113.50930319 -91.87188195 113.66109989 -94.4375 113.8125 C-96.15965233 113.93214563 -97.88166171 114.05386823 -99.60351562 114.17773438 C-112.55102672 115.08295875 -112.55102672 115.08295875 -118 115 C-116.88057343 108.94908667 -115.75952111 102.89847767 -114.63696289 96.84814453 C-114.25533088 94.78995916 -113.87414281 92.73169141 -113.4934082 90.67333984 C-112.94599301 87.71430021 -112.39698064 84.75556072 -111.84765625 81.796875 C-111.6778273 80.87694763 -111.50799835 79.95702026 -111.33302307 79.00921631 C-111.17293259 78.1486261 -111.0128421 77.28803589 -110.84790039 76.40136719 C-110.70800186 75.64635925 -110.56810333 74.89135132 -110.42396545 74.11346436 C-109.23926171 68.20772578 -109.23926171 68.20772578 -107.55151367 66.74243164 C-106.92994385 66.38528076 -106.30837402 66.02812988 -105.66796875 65.66015625 C-104.60980957 65.03596802 -104.60980957 65.03596802 -103.53027344 64.39916992 C-102.37060059 63.73751831 -102.37060059 63.73751831 -101.1875 63.0625 C-99.52837461 62.08339029 -97.87087836 61.10151582 -96.21484375 60.1171875 C-95.3522998 59.60639648 -94.48975586 59.09560547 -93.60107422 58.56933594 C-89.41671084 56.044736 -85.33454842 53.36958647 -81.25 50.6875 C-74.30020166 46.14023439 -67.3242405 41.63870986 -60.3125 37.1875 C-52.36448557 32.14128729 -44.42775203 27.07799041 -36.5 22 C-34.41537993 20.66664268 -32.33074456 19.33330927 -30.24609375 18 C-26.02497222 15.29932949 -21.80974695 12.58973084 -17.59765625 9.875 C-15.58599309 8.58324675 -13.57427662 7.29157653 -11.5625 6 C-10.62664062 5.39414063 -9.69078125 4.78828125 -8.7265625 4.1640625 C-7.44072266 3.34035156 -7.44072266 3.34035156 -6.12890625 2.5 C-5.37681885 2.0153125 -4.62473145 1.530625 -3.84985352 1.03125 C-2 0 -2 0 0 0 Z " fill="#F9C801" transform="translate(805,80)"/>
<path d="M0 0 C1.86207581 1.02606201 1.86207581 1.02606201 3.81079102 2.31542969 C4.55421249 2.80343552 5.29763397 3.29144135 6.06358337 3.79423523 C6.86888992 4.33135635 7.67419647 4.86847748 8.50390625 5.421875 C9.35847916 5.98562332 10.21305206 6.54937164 11.09352112 7.13020325 C13.9204112 8.99765206 16.74153964 10.87360805 19.5625 12.75 C21.53285344 14.05488842 23.50339645 15.35949062 25.47412109 16.66381836 C41.15895669 27.05837158 56.77446991 37.55633749 72.35766602 48.10253906 C73.19546097 48.66949493 74.03325592 49.23645081 74.8964386 49.82058716 C76.53252217 50.92824466 78.16818459 52.03652453 79.8033905 53.14547729 C83.91993068 55.9334823 88.04943879 58.69921079 92.20214844 61.43310547 C93.45631058 62.26067604 93.45631058 62.26067604 94.73580933 63.10496521 C96.32927579 64.15464415 97.92529482 65.20046146 99.52420044 66.24183655 C100.23019379 66.70722336 100.93618713 67.17261017 101.66357422 67.65209961 C102.59712234 68.26220131 102.59712234 68.26220131 103.54953003 68.8846283 C105 70 105 70 106 72 C93.69026157 71.37367152 81.55877373 69.47076682 69.375 67.69140625 C67.09630181 67.36112272 64.81757408 67.03104294 62.53881836 66.70115662 C57.78797725 66.01229692 53.03763297 65.32012583 48.28759766 64.62573242 C42.20134312 63.73640176 36.11373169 62.85676411 30.0256958 61.97972202 C25.33079718 61.30206254 20.63675019 60.6186463 15.94293213 59.93354607 C13.69773361 59.6066791 11.45225063 59.28175995 9.20648193 58.95883369 C6.07555403 58.50788461 2.94588254 58.04903498 -0.18359375 57.58813477 C-1.10831985 57.45663528 -2.03304596 57.3251358 -2.98579407 57.18965149 C-13.48495896 55.6233154 -13.48495896 55.6233154 -16.38696289 52.51391602 C-16.7452417 51.93311279 -17.10352051 51.35230957 -17.47265625 50.75390625 C-17.8917627 50.09028076 -18.31086914 49.42665527 -18.74267578 48.74291992 C-19.17821777 48.02338135 -19.61375977 47.30384277 -20.0625 46.5625 C-20.75835205 45.44742065 -20.75835205 45.44742065 -21.46826172 44.30981445 C-22.46270795 42.71575127 -23.45213122 41.11854567 -24.43701172 39.51855469 C-26.04713168 36.92405335 -27.69200684 34.35472007 -29.34765625 31.7890625 C-30.44024848 30.08863439 -31.53269981 28.38811572 -32.625 26.6875 C-33.14586182 25.8819165 -33.66672363 25.07633301 -34.20336914 24.24633789 C-34.68539795 23.48828857 -35.16742676 22.73023926 -35.6640625 21.94921875 C-36.30529053 20.94894653 -36.30529053 20.94894653 -36.95947266 19.9284668 C-38.02321412 17.95697598 -38.55817177 16.18811622 -39 14 C-34.81948674 12.18431017 -30.63856698 10.36956077 -26.45727539 8.55566406 C-25.03626604 7.93905762 -23.61536617 7.32219882 -22.19458008 6.70507812 C-20.14693795 5.81573444 -18.09889786 4.92731284 -16.05078125 4.0390625 C-15.10517082 3.62800766 -15.10517082 3.62800766 -14.14045715 3.20864868 C-12.42927264 2.4670995 -10.71474145 1.73328671 -9 1 C-8.11207764 0.58669434 -7.22415527 0.17338867 -6.30932617 -0.25244141 C-3.60377558 -1.12826294 -2.66008904 -0.87842529 0 0 Z " fill="#FAC801" transform="translate(730,205)"/>
<path d="M0 0 C2.93747848 1.31427078 4.8980337 2.68502399 7.06640625 5.0546875 C7.90981567 5.9677063 7.90981567 5.9677063 8.77026367 6.89916992 C9.65742065 7.87720581 9.65742065 7.87720581 10.5625 8.875 C11.18165283 9.54829346 11.80080566 10.22158691 12.4387207 10.9152832 C14.29768334 12.93882778 16.14910077 14.9690818 18 17 C18.99152142 18.08003895 19.98365279 19.15951845 20.9765625 20.23828125 C23.65746881 23.15299306 26.32904061 26.07616871 29 29 C30.81165745 30.97993913 32.62436315 32.95891562 34.4375 34.9375 C34.88891357 35.43016357 35.34032715 35.92282715 35.80541992 36.43041992 C39.69971697 40.67792868 43.60861298 44.91186058 47.51928711 49.14428711 C51.30851177 53.24678208 55.0842269 57.36144667 58.85546875 61.48046875 C62.22787338 65.162091 65.61182924 68.83288674 69 72.5 C72.94102843 76.76758718 76.88128711 81.03586673 80.8125 85.3125 C81.64394531 86.21613281 82.47539063 87.11976562 83.33203125 88.05078125 C84.21246094 89.02402344 85.09289062 89.99726562 86 91 C86.58336121 91.54166306 87.16672241 92.08332611 87.76776123 92.6414032 C91.48496167 96.32172253 93.4483653 99.01042642 93.79467773 104.31445312 C93.79358259 106.30372976 93.75480224 108.29324797 93.68359375 110.28125 C93.67368912 111.33534058 93.66378448 112.38943115 93.65357971 113.47546387 C93.6146189 116.81843459 93.52682776 120.15803407 93.4375 123.5 C93.40236264 125.77599401 93.37042791 128.05203985 93.34179688 130.328125 C93.26491807 135.88655288 93.14801502 141.44303557 93 147 C92.35661682 146.79526566 91.71323364 146.59053131 91.050354 146.3795929 C86.10460563 144.8438765 81.37764843 143.67301215 76.234375 142.98046875 C66.46312165 140.9454962 57.15928681 138.08787729 51.2857666 129.49090576 C43.28111963 115.4211232 38.32119464 99.59783363 33.16064453 84.32080078 C30.66382697 76.93681582 27.79956669 69.75996382 24.8125 62.5625 C23.92513962 60.34244043 23.04114241 58.12103425 22.16015625 55.8984375 C19.48262786 49.18596572 16.77244853 42.48692113 14.05859375 35.7890625 C13.40447258 34.1741114 13.40447258 34.1741114 12.73713684 32.52653503 C10.54158643 27.10670743 8.3440068 21.68771385 6.14379883 16.26977539 C5.34059147 14.28794996 4.53744723 12.30609894 3.734375 10.32421875 C3.35691635 9.39666779 2.9794577 8.46911682 2.59056091 7.51345825 C2.24840042 6.66814545 1.90623993 5.82283264 1.55371094 4.9519043 C1.25237244 4.2096611 0.95103394 3.46741791 0.64056396 2.7026825 C0 1 0 1 0 0 Z " fill="#F9C801" transform="translate(543,29)"/>
<path d="M0 0 C1.06444336 0.00563965 2.12888672 0.0112793 3.22558594 0.01708984 C20.66613289 0.28717498 33.78154486 5.96143846 46.1875 18.3125 C44.71028578 21.76451639 42.74955999 23.96211936 40.0625 26.5625 C39.33804687 27.26890625 38.61359375 27.9753125 37.8671875 28.703125 C37.31289062 29.23421875 36.75859375 29.7653125 36.1875 30.3125 C33.30130695 28.97452971 30.96863075 27.43517604 28.5 25.4375 C17.81495899 17.3547199 6.13797928 15.55049116 -7.03125 16.71484375 C-19.3580699 18.66319442 -29.65974431 24.65712626 -37.46875 34.375 C-45.19890964 45.52081157 -47.38434087 58.02288621 -45.34765625 71.35546875 C-42.7798025 83.10074064 -37.37301761 93.00004327 -27.4609375 99.96484375 C-15.41678427 107.59032157 -2.70502827 109.87358647 11.4375 107.25 C20.59237759 104.98199299 28.26726468 100.67163516 35.1875 94.3125 C36.45950971 95.41531127 37.73005853 96.51980769 39 97.625 C39.70769531 98.23988281 40.41539063 98.85476563 41.14453125 99.48828125 C42.15580078 100.39126953 42.15580078 100.39126953 43.1875 101.3125 C43.78949219 101.80105469 44.39148437 102.28960938 45.01171875 102.79296875 C46.1875 104.3125 46.1875 104.3125 46.11328125 106.2890625 C42.29522892 114.63400388 29.53878018 119.16553088 21.59765625 122.3515625 C4.48996128 127.72754888 -16.70499561 125.60935354 -32.5625 117.625 C-48.36966563 108.22995356 -58.39054106 95.34359809 -63.625 77.75 C-67.50709149 60.52600786 -64.53775777 43.47497016 -55.7109375 28.2421875 C-46.72772091 14.37919893 -32.64134527 5.2331298 -16.69140625 1.203125 C-11.14015605 0.02697341 -5.65684984 -0.03121882 0 0 Z " fill="#5C005E" transform="translate(1562.8125,1050.6875)"/>
<path d="M0 0 C1.06444336 0.00563965 2.12888672 0.0112793 3.22558594 0.01708984 C20.66613289 0.28717498 33.78154486 5.96143846 46.1875 18.3125 C44.71028578 21.76451639 42.74955999 23.96211936 40.0625 26.5625 C39.33804688 27.26890625 38.61359375 27.9753125 37.8671875 28.703125 C37.31289063 29.23421875 36.75859375 29.7653125 36.1875 30.3125 C33.30130695 28.97452971 30.96863075 27.43517604 28.5 25.4375 C17.81495899 17.3547199 6.13797928 15.55049116 -7.03125 16.71484375 C-19.3580699 18.66319442 -29.65974431 24.65712626 -37.46875 34.375 C-45.19890964 45.52081157 -47.38434087 58.02288621 -45.34765625 71.35546875 C-42.7798025 83.10074064 -37.37301761 93.00004327 -27.4609375 99.96484375 C-15.41678427 107.59032157 -2.70502827 109.87358647 11.4375 107.25 C20.59237759 104.98199299 28.26726468 100.67163516 35.1875 94.3125 C36.45950971 95.41531127 37.73005853 96.51980769 39 97.625 C39.70769531 98.23988281 40.41539062 98.85476563 41.14453125 99.48828125 C42.15580078 100.39126953 42.15580078 100.39126953 43.1875 101.3125 C43.78949219 101.80105469 44.39148438 102.28960938 45.01171875 102.79296875 C46.1875 104.3125 46.1875 104.3125 46.11328125 106.2890625 C42.29522892 114.63400388 29.53878018 119.16553088 21.59765625 122.3515625 C4.48996128 127.72754888 -16.70499561 125.60935354 -32.5625 117.625 C-48.36966563 108.22995356 -58.39054106 95.34359809 -63.625 77.75 C-67.50709149 60.52600786 -64.53775777 43.47497016 -55.7109375 28.2421875 C-46.72772091 14.37919893 -32.64134527 5.2331298 -16.69140625 1.203125 C-11.14015605 0.02697341 -5.65684984 -0.03121882 0 0 Z " fill="#5C005E" transform="translate(792.8125,1050.6875)"/>
<path d="M0 0 C1.25671509 0.00845947 1.25671509 0.00845947 2.53881836 0.01708984 C14.56209423 0.25313822 24.49362783 4.28623231 33.375 12.5625 C43.40862415 23.3297146 46.54736171 35.87177842 46.625 50.3125 C46.13 51.3025 46.13 51.3025 45.625 52.3125 C21.205 52.6425 -3.215 52.9725 -28.375 53.3125 C-24.00163694 65.33924841 -20.98099787 71.13555212 -9.8046875 76.40234375 C-0.14808155 80.01968971 11.21903065 79.34851594 20.625 75.3125 C23.89810553 73.40893013 23.89810553 73.40893013 26.625 71.3125 C28.275 70.3225 29.925 69.3325 31.625 68.3125 C34.265 71.6125 36.905 74.9125 39.625 78.3125 C35.27175575 87.0189885 27.55897159 90.25742252 18.625 93.3125 C5.1689915 97.01641872 -11.10055954 95.05413446 -23.32421875 88.8046875 C-35.35679171 81.74601578 -41.10682686 72.49451024 -45.6875 59.625 C-48.33423207 47.2311681 -46.87654612 33.20383757 -40.75 22.125 C-33.74191548 11.39763721 -24.17510532 3.62904497 -11.55004883 0.68969727 C-7.70366326 0.02265655 -3.89584102 -0.02747143 0 0 Z M-22.375 24.3125 C-26.23924041 29.9469511 -27.66943732 34.49024926 -29.375 41.3125 C-9.905 41.3125 9.565 41.3125 29.625 41.3125 C27.45919523 31.56637851 25.3694693 25.60302926 17.125 19.875 C4.61720827 12.38691904 -12.06518063 13.26626496 -22.375 24.3125 Z " fill="#5C005E" transform="translate(1990.375,1080.6875)"/>
<path d="M0 0 C1.25671509 0.00845947 1.25671509 0.00845947 2.53881836 0.01708984 C14.56209423 0.25313822 24.49362783 4.28623231 33.375 12.5625 C43.40862415 23.3297146 46.54736171 35.87177842 46.625 50.3125 C46.13 51.3025 46.13 51.3025 45.625 52.3125 C21.205 52.6425 -3.215 52.9725 -28.375 53.3125 C-24.00163694 65.33924841 -20.98099787 71.13555212 -9.8046875 76.40234375 C-0.14808155 80.01968971 11.21903065 79.34851594 20.625 75.3125 C23.89810553 73.40893013 23.89810553 73.40893013 26.625 71.3125 C28.275 70.3225 29.925 69.3325 31.625 68.3125 C34.265 71.6125 36.905 74.9125 39.625 78.3125 C35.27175575 87.0189885 27.55897159 90.25742252 18.625 93.3125 C5.1689915 97.01641872 -11.10055954 95.05413446 -23.32421875 88.8046875 C-35.35679171 81.74601578 -41.10682686 72.49451024 -45.6875 59.625 C-48.33423207 47.2311681 -46.87654612 33.20383757 -40.75 22.125 C-33.74191548 11.39763721 -24.17510532 3.62904497 -11.55004883 0.68969727 C-7.70366326 0.02265655 -3.89584102 -0.02747143 0 0 Z M-22.375 24.3125 C-26.23924041 29.9469511 -27.66943732 34.49024926 -29.375 41.3125 C-9.905 41.3125 9.565 41.3125 29.625 41.3125 C27.45919523 31.56637851 25.3694693 25.60302926 17.125 19.875 C4.61720827 12.38691904 -12.06518063 13.26626496 -22.375 24.3125 Z " fill="#5C005E" transform="translate(1389.375,1080.6875)"/>
<path d="M0 0 C1.25671509 0.00845947 1.25671509 0.00845947 2.53881836 0.01708984 C14.56209423 0.25313822 24.49362783 4.28623231 33.375 12.5625 C43.40862415 23.3297146 46.54736171 35.87177842 46.625 50.3125 C46.13 51.3025 46.13 51.3025 45.625 52.3125 C21.205 52.6425 -3.215 52.9725 -28.375 53.3125 C-24.00163694 65.33924841 -20.98099787 71.13555212 -9.8046875 76.40234375 C-0.14808155 80.01968971 11.21903065 79.34851594 20.625 75.3125 C23.89810553 73.40893013 23.89810553 73.40893013 26.625 71.3125 C28.275 70.3225 29.925 69.3325 31.625 68.3125 C34.265 71.6125 36.905 74.9125 39.625 78.3125 C35.27175575 87.0189885 27.55897159 90.25742252 18.625 93.3125 C5.1689915 97.01641872 -11.10055954 95.05413446 -23.32421875 88.8046875 C-35.35679171 81.74601578 -41.10682686 72.49451024 -45.6875 59.625 C-48.33423207 47.2311681 -46.87654612 33.20383757 -40.75 22.125 C-33.74191548 11.39763721 -24.17510532 3.62904497 -11.55004883 0.68969727 C-7.70366326 0.02265655 -3.89584102 -0.02747143 0 0 Z M-22.375 24.3125 C-26.23924041 29.9469511 -27.66943732 34.49024926 -29.375 41.3125 C-9.905 41.3125 9.565 41.3125 29.625 41.3125 C27.45919523 31.56637851 25.3694693 25.60302926 17.125 19.875 C4.61720827 12.38691904 -12.06518063 13.26626496 -22.375 24.3125 Z " fill="#5C005E" transform="translate(966.375,1080.6875)"/>
<path d="M0 0 C0.90669434 -0.01023193 1.81338867 -0.02046387 2.74755859 -0.03100586 C13.25052122 0.10590605 22.9237286 2.93992688 30.6328125 10.29296875 C37.45839655 17.67545192 39.82049172 24.94676456 39.80102539 34.97192383 C39.80091209 36.92338066 39.80091209 36.92338066 39.80079651 38.91426086 C39.79569062 40.32435139 39.79047464 41.73444151 39.78515625 43.14453125 C39.78328979 44.59470063 39.78186696 46.04487065 39.78086853 47.49504089 C39.7770613 51.30082966 39.76724642 55.10657991 39.75616455 58.91235352 C39.74591177 62.80028767 39.74136264 66.68822808 39.73632812 70.57617188 C39.72562246 78.19663413 39.70804028 85.81705675 39.6875 93.4375 C34.4075 93.4375 29.1275 93.4375 23.6875 93.4375 C23.3575 90.1375 23.0275 86.8375 22.6875 83.4375 C21.759375 84.5203125 21.759375 84.5203125 20.8125 85.625 C13.44035022 93.03939705 4.07678142 94.67502333 -5.875 94.75 C-17.44484659 94.76866773 -26.68885257 92.59224934 -35.3125 84.4375 C-40.23958588 78.47313288 -41.61555734 72.48592573 -41.1875 64.9375 C-40.2020532 56.92105641 -37.25309368 51.11156755 -30.82470703 46.08398438 C-20.17474967 39.10407063 -7.66875826 39.94492579 4.5 40.1875 C6.27146398 40.20761368 8.04295024 40.22585577 9.81445312 40.2421875 C14.10603043 40.28575655 18.3965115 40.35450833 22.6875 40.4375 C22.39390865 38.51992262 22.09301525 36.60346232 21.7890625 34.6875 C21.62229004 33.62015625 21.45551758 32.5528125 21.28369141 31.453125 C20.33815646 26.67046833 19.03192281 23.01009637 14.7890625 20.1640625 C4.65056331 14.84983058 -6.50678015 15.37362132 -17.3671875 18.37109375 C-22.32573061 20.16642832 -26.8169679 22.70301295 -31.3125 25.4375 C-32.48442047 23.48230616 -33.6498929 21.5232461 -34.8125 19.5625 C-35.4621875 18.47195313 -36.111875 17.38140625 -36.78125 16.2578125 C-38.3125 13.4375 -38.3125 13.4375 -38.3125 11.4375 C-26.7912979 2.72687048 -14.07860351 0.12191829 0 0 Z M-22.3125 59.4375 C-24.16119552 63.13489105 -23.64470142 67.3935866 -23.3125 71.4375 C-21.93353786 75.40201616 -20.02036531 76.78114525 -16.4375 78.6875 C-8.5840285 82.44484715 0.35091096 82.18720133 8.546875 79.5 C14.79240683 76.62327019 19.57937675 72.65374651 22.6875 66.4375 C22.75866382 64.06347499 22.77159085 61.68749323 22.75 59.3125 C22.74097656 58.03117187 22.73195313 56.74984375 22.72265625 55.4296875 C22.71105469 54.44226562 22.69945312 53.45484375 22.6875 52.4375 C18.57987237 52.38757091 14.47236552 52.35153354 10.36450195 52.32763672 C8.97091591 52.3176607 7.57735034 52.30407499 6.18383789 52.28662109 C-9.40441744 51.80786874 -9.40441744 51.80786874 -22.3125 59.4375 Z " fill="#5C005E" transform="translate(1066.3125,1080.5625)"/>
<path d="M0 0 C0.90669434 -0.01023193 1.81338867 -0.02046387 2.74755859 -0.03100586 C13.25052122 0.10590605 22.9237286 2.93992688 30.6328125 10.29296875 C37.45839655 17.67545192 39.82049172 24.94676456 39.80102539 34.97192383 C39.80091209 36.92338066 39.80091209 36.92338066 39.80079651 38.91426086 C39.79569062 40.32435139 39.79047464 41.73444151 39.78515625 43.14453125 C39.78328979 44.59470063 39.78186696 46.04487065 39.78086853 47.49504089 C39.7770613 51.30082966 39.76724642 55.10657991 39.75616455 58.91235352 C39.74591177 62.80028767 39.74136264 66.68822808 39.73632812 70.57617188 C39.72562246 78.19663413 39.70804028 85.81705675 39.6875 93.4375 C34.4075 93.4375 29.1275 93.4375 23.6875 93.4375 C23.3575 90.1375 23.0275 86.8375 22.6875 83.4375 C21.759375 84.5203125 21.759375 84.5203125 20.8125 85.625 C13.44035022 93.03939705 4.07678142 94.67502333 -5.875 94.75 C-17.44484659 94.76866773 -26.68885257 92.59224934 -35.3125 84.4375 C-40.23958588 78.47313288 -41.61555734 72.48592573 -41.1875 64.9375 C-40.2020532 56.92105641 -37.25309368 51.11156755 -30.82470703 46.08398438 C-20.17474967 39.10407063 -7.66875826 39.94492579 4.5 40.1875 C6.27146398 40.20761368 8.04295024 40.22585577 9.81445312 40.2421875 C14.10603043 40.28575655 18.3965115 40.35450833 22.6875 40.4375 C22.39390865 38.51992262 22.09301525 36.60346232 21.7890625 34.6875 C21.62229004 33.62015625 21.45551758 32.5528125 21.28369141 31.453125 C20.33815646 26.67046833 19.03192281 23.01009637 14.7890625 20.1640625 C4.65056331 14.84983058 -6.50678015 15.37362132 -17.3671875 18.37109375 C-22.32573061 20.16642832 -26.8169679 22.70301295 -31.3125 25.4375 C-32.48442047 23.48230616 -33.6498929 21.5232461 -34.8125 19.5625 C-35.4621875 18.47195313 -36.111875 17.38140625 -36.78125 16.2578125 C-38.3125 13.4375 -38.3125 13.4375 -38.3125 11.4375 C-26.7912979 2.72687048 -14.07860351 0.12191829 0 0 Z M-22.3125 59.4375 C-24.16119552 63.13489105 -23.64470142 67.3935866 -23.3125 71.4375 C-21.93353786 75.40201616 -20.02036531 76.78114525 -16.4375 78.6875 C-8.5840285 82.44484715 0.35091096 82.18720133 8.546875 79.5 C14.79240683 76.62327019 19.57937675 72.65374651 22.6875 66.4375 C22.75866382 64.06347499 22.77159085 61.68749323 22.75 59.3125 C22.74097656 58.03117187 22.73195313 56.74984375 22.72265625 55.4296875 C22.71105469 54.44226562 22.69945312 53.45484375 22.6875 52.4375 C18.57987237 52.38757091 14.47236552 52.35153354 10.36450195 52.32763672 C8.97091591 52.3176607 7.57735034 52.30407499 6.18383789 52.28662109 C-9.40441744 51.80786874 -9.40441744 51.80786874 -22.3125 59.4375 Z " fill="#5C005E" transform="translate(428.3125,1080.5625)"/>
<path d="M0 0 C0.90669434 -0.01023193 1.81338867 -0.02046387 2.74755859 -0.03100586 C13.25052122 0.10590605 22.9237286 2.93992688 30.6328125 10.29296875 C37.45839655 17.67545192 39.82049172 24.94676456 39.80102539 34.97192383 C39.80091209 36.92338066 39.80091209 36.92338066 39.80079651 38.91426086 C39.79569062 40.32435139 39.79047464 41.73444151 39.78515625 43.14453125 C39.78328979 44.59470063 39.78186696 46.04487065 39.78086853 47.49504089 C39.7770613 51.30082966 39.76724642 55.10657991 39.75616455 58.91235352 C39.74591177 62.80028767 39.74136264 66.68822808 39.73632812 70.57617188 C39.72562246 78.19663413 39.70804028 85.81705675 39.6875 93.4375 C34.4075 93.4375 29.1275 93.4375 23.6875 93.4375 C23.3575 90.1375 23.0275 86.8375 22.6875 83.4375 C21.759375 84.5203125 21.759375 84.5203125 20.8125 85.625 C13.44035022 93.03939705 4.07678142 94.67502333 -5.875 94.75 C-17.44484659 94.76866773 -26.68885257 92.59224934 -35.3125 84.4375 C-40.23958588 78.47313288 -41.61555734 72.48592573 -41.1875 64.9375 C-40.2020532 56.92105641 -37.25309368 51.11156755 -30.82470703 46.08398438 C-20.17474967 39.10407063 -7.66875826 39.94492579 4.5 40.1875 C6.27146398 40.20761368 8.04295024 40.22585577 9.81445312 40.2421875 C14.10603043 40.28575655 18.3965115 40.35450833 22.6875 40.4375 C22.39390865 38.51992262 22.09301525 36.60346232 21.7890625 34.6875 C21.62229004 33.62015625 21.45551758 32.5528125 21.28369141 31.453125 C20.33815646 26.67046833 19.03192281 23.01009637 14.7890625 20.1640625 C4.65056331 14.84983058 -6.50678015 15.37362132 -17.3671875 18.37109375 C-22.32573061 20.16642832 -26.8169679 22.70301295 -31.3125 25.4375 C-32.48442047 23.48230616 -33.6498929 21.5232461 -34.8125 19.5625 C-35.4621875 18.47195313 -36.111875 17.38140625 -36.78125 16.2578125 C-38.3125 13.4375 -38.3125 13.4375 -38.3125 11.4375 C-26.7912979 2.72687048 -14.07860351 0.12191829 0 0 Z M-22.3125 59.4375 C-24.16119552 63.13489105 -23.64470142 67.3935866 -23.3125 71.4375 C-21.93353786 75.40201616 -20.02036531 76.78114525 -16.4375 78.6875 C-8.5840285 82.44484715 0.35091096 82.18720133 8.546875 79.5 C14.79240683 76.62327019 19.57937675 72.65374651 22.6875 66.4375 C22.75866382 64.06347499 22.77159085 61.68749323 22.75 59.3125 C22.74097656 58.03117187 22.73195312 56.74984375 22.72265625 55.4296875 C22.71105469 54.44226562 22.69945312 53.45484375 22.6875 52.4375 C18.57987237 52.38757091 14.47236552 52.35153354 10.36450195 52.32763672 C8.97091591 52.3176607 7.57735034 52.30407499 6.18383789 52.28662109 C-9.40441744 51.80786874 -9.40441744 51.80786874 -22.3125 59.4375 Z " fill="#5C005E" transform="translate(157.3125,1080.5625)"/>
<path d="M0 0 C3.35720328 2.41355695 6.28910307 4.98094785 9.0625 8.0625 C9.8875 8.92875 10.7125 9.795 11.5625 10.6875 C20.10768748 21.25441953 21.85565842 34.54238108 20.59765625 47.671875 C18.63056916 60.13487934 11.94328573 71.2140498 2.0625 79.0625 C-11.42200181 87.25860555 -26.06142439 89.22531857 -41.51953125 86.41015625 C-53.33537912 82.80190913 -63.3785305 75.88239908 -69.625 65.16796875 C-76.11419817 52.76673667 -78.15967116 39.87992341 -74.75 26.125 C-70.85946581 14.07515106 -63.52181661 4.45509738 -52.3984375 -1.72265625 C-35.99201229 -9.82170108 -15.62680952 -9.8655388 0 0 Z M-54.3125 22.125 C-59.20535961 30.96978468 -59.49071826 42.17067525 -57.28515625 51.95703125 C-53.62754884 60.9205241 -46.72896244 67.2761585 -37.9375 71.0625 C-28.89566524 73.92942322 -19.21060736 72.35178797 -10.9375 68.0625 C-3.76412766 63.44754885 0.60515589 56.882594 2.67578125 48.61328125 C4.23837767 38.30645842 3.35818953 28.30738074 -2.8125 19.6875 C-8.73282236 12.51397071 -15.69137143 8.86741348 -24.96875 7.671875 C-37.56178104 7.21748728 -46.68271075 12.28658754 -54.3125 22.125 Z " fill="#5C005E" transform="translate(1692.9375,1087.9375)"/>
<path d="M0 0 C7.50905877 5.03878897 12.54057461 12.99305328 14.77734375 21.71484375 C16.0742481 28.55268496 15.90355382 35.36482822 15.875 42.3046875 C15.87358505 43.60434952 15.8721701 44.90401154 15.87071228 46.24305725 C15.86691709 49.67727628 15.85711283 53.11145217 15.8460083 56.5456543 C15.8357293 60.05842506 15.83120083 63.57120287 15.82617188 67.08398438 C15.81548751 73.96095687 15.79791542 80.83789379 15.77734375 87.71484375 C9.83734375 87.71484375 3.89734375 87.71484375 -2.22265625 87.71484375 C-2.23723877 85.93916016 -2.25182129 84.16347656 -2.2668457 82.33398438 C-2.31865972 76.44258149 -2.38398894 70.55141013 -2.45837116 64.66025543 C-2.50294591 61.09123529 -2.54222949 57.52232589 -2.5690918 53.953125 C-2.59525476 50.50344513 -2.63574635 47.05419447 -2.68584251 43.6047821 C-2.71044941 41.65967561 -2.72052232 39.7144026 -2.7303009 37.76916504 C-2.8629807 29.72129656 -3.21844642 23.27246066 -8.59765625 16.90234375 C-16.32829435 10.46014533 -23.34727428 9.89663028 -33.22265625 10.71484375 C-40.05880198 12.43087488 -46.56968434 15.51785925 -50.4375 21.63671875 C-53.34157193 27.13481935 -54.3279073 32.11258746 -54.42797852 38.33129883 C-54.44792374 39.43206253 -54.46786896 40.53282623 -54.48841858 41.66694641 C-54.51348732 43.43282356 -54.51348732 43.43282356 -54.5390625 45.234375 C-54.5598436 46.44808273 -54.58062469 47.66179047 -54.60203552 48.91227722 C-54.66734541 52.78390926 -54.72632988 56.6556083 -54.78515625 60.52734375 C-54.8283591 63.15430377 -54.87197396 65.78125704 -54.91601562 68.40820312 C-55.02300787 74.84368157 -55.12432775 81.27922733 -55.22265625 87.71484375 C-61.16265625 87.71484375 -67.10265625 87.71484375 -73.22265625 87.71484375 C-73.22265625 57.35484375 -73.22265625 26.99484375 -73.22265625 -4.28515625 C-67.61265625 -4.28515625 -62.00265625 -4.28515625 -56.22265625 -4.28515625 C-55.89265625 -0.65515625 -55.56265625 2.97484375 -55.22265625 6.71484375 C-54.10890625 5.64234375 -52.99515625 4.56984375 -51.84765625 3.46484375 C-38.27316165 -8.46718531 -15.1589973 -8.76504413 0 0 Z " fill="#5C005E" transform="translate(1808.22265625,1086.28515625)"/>
<path d="M0 0 C7.50905877 5.03878897 12.54057461 12.99305328 14.77734375 21.71484375 C16.0742481 28.55268496 15.90355382 35.36482822 15.875 42.3046875 C15.87358505 43.60434952 15.8721701 44.90401154 15.87071228 46.24305725 C15.86691709 49.67727628 15.85711283 53.11145217 15.8460083 56.5456543 C15.8357293 60.05842506 15.83120083 63.57120287 15.82617188 67.08398438 C15.81548751 73.96095687 15.79791542 80.83789379 15.77734375 87.71484375 C9.83734375 87.71484375 3.89734375 87.71484375 -2.22265625 87.71484375 C-2.23723877 85.93916016 -2.25182129 84.16347656 -2.2668457 82.33398438 C-2.31865972 76.44258149 -2.38398894 70.55141013 -2.45837116 64.66025543 C-2.50294591 61.09123529 -2.54222949 57.52232589 -2.5690918 53.953125 C-2.59525476 50.50344513 -2.63574635 47.05419447 -2.68584251 43.6047821 C-2.71044941 41.65967561 -2.72052232 39.7144026 -2.7303009 37.76916504 C-2.8629807 29.72129656 -3.21844642 23.27246066 -8.59765625 16.90234375 C-16.32829435 10.46014533 -23.34727428 9.89663028 -33.22265625 10.71484375 C-40.05880198 12.43087488 -46.56968434 15.51785925 -50.4375 21.63671875 C-53.34157193 27.13481935 -54.3279073 32.11258746 -54.42797852 38.33129883 C-54.44792374 39.43206253 -54.46786896 40.53282623 -54.48841858 41.66694641 C-54.51348732 43.43282356 -54.51348732 43.43282356 -54.5390625 45.234375 C-54.5598436 46.44808273 -54.58062469 47.66179047 -54.60203552 48.91227722 C-54.66734541 52.78390926 -54.72632988 56.6556083 -54.78515625 60.52734375 C-54.8283591 63.15430377 -54.87197396 65.78125704 -54.91601562 68.40820312 C-55.02300787 74.84368157 -55.12432775 81.27922733 -55.22265625 87.71484375 C-61.16265625 87.71484375 -67.10265625 87.71484375 -73.22265625 87.71484375 C-73.22265625 57.35484375 -73.22265625 26.99484375 -73.22265625 -4.28515625 C-67.61265625 -4.28515625 -62.00265625 -4.28515625 -56.22265625 -4.28515625 C-55.89265625 -0.65515625 -55.56265625 2.97484375 -55.22265625 6.71484375 C-54.10890625 5.64234375 -52.99515625 4.56984375 -51.84765625 3.46484375 C-38.27316165 -8.46718531 -15.1589973 -8.76504413 0 0 Z " fill="#5C005E" transform="translate(571.22265625,1086.28515625)"/>
<path d="M0 0 C1.5159375 0.00241699 1.5159375 0.00241699 3.0625 0.00488281 C14.13136355 0.18466372 24.61942603 2.01143729 33.9375 8.375 C33.35642368 12.1352985 32.28550504 14.90535032 30.375 18.1875 C29.91996094 18.97769531 29.46492188 19.76789063 28.99609375 20.58203125 C28.47208984 21.46955078 28.47208984 21.46955078 27.9375 22.375 C23.45121991 21.60592341 19.60802502 20.08497313 15.4375 18.3125 C6.5653583 14.98544686 -5.48973954 14.8328854 -14.3203125 18.3984375 C-17.12312028 19.96951809 -18.55347157 21.55377294 -20.0625 24.375 C-20.4792552 27.41711431 -20.4792552 27.41711431 -20.0625 30.375 C-20.000625 31.1175 -19.93875 31.86 -19.875 32.625 C-19.19150246 34.58232836 -19.19150246 34.58232836 -16.99609375 35.3671875 C-13.48340104 36.57394478 -9.93031498 37.43318109 -6.3125 38.25 C-5.57314209 38.42217041 -4.83378418 38.59434082 -4.07202148 38.77172852 C-0.22812413 39.66496853 3.62082033 40.52519052 7.48046875 41.34765625 C18.13848266 43.65675564 27.79731776 45.85953102 34.87890625 54.7265625 C38.46503268 60.3108627 37.40275499 68.0076532 36.9375 74.375 C35.35585268 80.60630933 31.30117092 84.99645995 25.9375 88.375 C9.74510258 96.32087141 -9.70844655 97.04740211 -26.90625 91.5859375 C-36.48539348 87.91077107 -36.48539348 87.91077107 -40.0625 85.375 C-41.0625 82.375 -41.0625 82.375 -39.84765625 79.45703125 C-38.99494141 77.83861328 -38.99494141 77.83861328 -38.125 76.1875 C-37.55910156 75.10082031 -36.99320313 74.01414062 -36.41015625 72.89453125 C-35.96542969 72.06308594 -35.52070313 71.23164062 -35.0625 70.375 C-31.63233376 71.09842369 -28.63531391 72.39078062 -25.4375 73.8125 C-14.31346452 78.44974852 -0.00979418 81.19255711 11.75 77.0625 C15.14543522 75.26491665 17.21704217 73.81591565 18.9375 70.375 C19.43845023 67.50193772 19.43845023 67.50193772 18.9375 64.375 C15.0607537 59.41216135 11.58618413 58.36212625 5.6875 57.3125 C4.07796145 56.98778879 2.46859027 56.66224703 0.859375 56.3359375 C0.04275391 56.17706055 -0.77386719 56.01818359 -1.61523438 55.85449219 C-28.96151961 50.49654085 -28.96151961 50.49654085 -36.00390625 40.2421875 C-39.43605821 34.18842868 -39.15531507 25.50926424 -37.4140625 18.921875 C-34.12051773 11.77178636 -28.34390119 6.59739486 -21.34765625 3.19921875 C-14.16082872 0.60704677 -7.5930277 -0.01260463 0 0 Z " fill="#5C005E" transform="translate(2279.0625,1080.625)"/>
<path d="M0 0 C0.91612061 0.00757324 1.83224121 0.01514648 2.77612305 0.02294922 C14.89529084 0.31678622 24.13652527 3.78491987 32.6328125 12.49609375 C37.39627801 17.75133404 37.39627801 17.75133404 38.625 21.4375 C36.67032248 22.77648399 34.7116421 24.10879047 32.75 25.4375 C31.11417969 26.55125 31.11417969 26.55125 29.4453125 27.6875 C26.625 29.4375 26.625 29.4375 24.625 29.4375 C24.08875 28.550625 23.5525 27.66375 23 26.75 C19.76683203 21.66587341 14.7810715 19.29179248 9.3125 17.125 C-0.80862909 15.23800983 -9.97180367 16.19377089 -18.703125 21.98046875 C-24.35329803 26.55292359 -27.10901756 31.63955269 -29.375 38.4375 C-30.44797242 52.60104349 -30.44797242 52.60104349 -25.375 65.4375 C-24.87742187 66.15292969 -24.37984375 66.86835937 -23.8671875 67.60546875 C-19.01510241 73.80034018 -13.03186304 76.88601556 -5.375 78.4375 C4.66366087 79.33538609 12.82211634 77.83501328 20.6875 71.3125 C22.47926061 69.68515977 23.53866498 68.61017005 24.625 66.4375 C28.24776315 67.7630581 31.26005348 69.38096955 34.4375 71.5625 C35.22769531 72.10132813 36.01789063 72.64015625 36.83203125 73.1953125 C37.42371094 73.60523438 38.01539063 74.01515625 38.625 74.4375 C33.44381928 85.01574398 25.56841125 89.6542064 14.625 93.4375 C1.72027678 97.13048088 -13.65764913 94.93861581 -25.36328125 88.89453125 C-37.16001653 81.91865396 -43.08846851 72.40076771 -47.75 59.6875 C-50.36170282 46.79053451 -48.68406192 32.91922981 -41.8671875 21.625 C-31.95448723 7.09329279 -17.48812763 -0.2039715 0 0 Z " fill="#5C005E" transform="translate(1894.375,1080.5625)"/>
<path d="M0 0 C6.27 0 12.54 0 19 0 C26.03857422 16.42333984 33.07714844 32.84667969 40.11572266 49.27001953 C40.58439758 50.36187561 41.05307251 51.45373169 41.53594971 52.57867432 C42.58321704 55.02602372 43.62550686 57.47512502 44.66278076 59.92669678 C44.93679907 60.57208845 45.21081738 61.21748013 45.49313927 61.88242912 C46.26201864 63.69380384 47.02858027 65.50616187 47.79501343 67.318573 C48.75016236 69.86854048 48.75016236 69.86854048 50 71 C60.47146112 47.39149526 70.91374118 23.77619096 81 0 C86.94 0 92.88 0 99 0 C93.28116148 13.98081741 87.33759293 27.83708782 81.12280273 41.60473633 C76.80847296 51.16669533 72.5737569 60.76175147 68.375 70.375 C68.07509155 71.06126465 67.77518311 71.7475293 67.46618652 72.45458984 C64.62343643 78.96104144 61.79700307 85.4736595 59 92 C52.73 92 46.46 92 40 92 C38.90945313 89.51597656 37.81890625 87.03195312 36.6953125 84.47265625 C36.31617706 83.60911026 35.93704163 82.74556427 35.54641724 81.85585022 C33.59556566 77.41242294 31.64498871 72.96887536 29.69482422 68.52514648 C25.86210125 59.79242246 22.02794018 51.06034862 18.18460083 42.33229065 C16.55500005 38.63130438 14.92659926 34.92979068 13.29827881 31.22824097 C12.52238832 29.46538372 11.74590877 27.70278561 10.96881104 25.94046021 C7.17820631 17.34348185 3.40401762 8.75955319 0 0 Z " fill="#5C005E" transform="translate(1241,1082)"/>
<path d="M0 0 C5.61 0 11.22 0 17 0 C17 6.93 17 13.86 17 21 C25.91 21 34.82 21 44 21 C44 25.62 44 30.24 44 35 C35.09 35 26.18 35 17 35 C17.07413069 42.2596953 17.15708565 49.5181887 17.26245117 56.77734375 C17.29562363 59.24472749 17.32367926 61.71218571 17.34643555 64.1796875 C17.38012213 67.73469666 17.43244702 71.28902798 17.48828125 74.84375 C17.49467117 75.93989624 17.5010611 77.03604248 17.50764465 78.16540527 C17.62716887 84.44816469 18.24287235 89.31499662 21 95 C25.60614583 98.50944445 30.42559917 98.71046285 36 98 C39.08197864 97.18747836 42.0389171 96.17603293 45 95 C45.86604534 96.76505435 46.71748642 98.53728074 47.5625 100.3125 C48.03816406 101.29863281 48.51382813 102.28476563 49.00390625 103.30078125 C50 106 50 106 49 109 C47.2578125 110.1328125 47.2578125 110.1328125 45.125 111.125 C44.42632813 111.45757813 43.72765625 111.79015625 43.0078125 112.1328125 C35.64696783 115.31201 24.06171898 115.50665695 16.375 112.8125 C8.38748627 108.52290929 3.25092598 104.23955041 0.44801331 95.22467041 C-0.09814865 92.51262966 -0.11954177 89.98921216 -0.11352539 87.22167969 C-0.11344986 86.0607782 -0.11337433 84.89987671 -0.11329651 83.70379639 C-0.10813522 82.45576233 -0.10297394 81.20772827 -0.09765625 79.921875 C-0.0962413 78.64016418 -0.09482635 77.35845337 -0.09336853 76.03790283 C-0.08955901 72.6381636 -0.07974214 69.2384674 -0.06866455 65.83874512 C-0.05841674 62.366461 -0.0538637 58.8941699 -0.04882812 55.421875 C-0.03811841 48.61456392 -0.02053433 41.80728846 0 35 C-5.28 35 -10.56 35 -16 35 C-16 30.38 -16 25.76 -16 21 C-10.72 21 -5.44 21 0 21 C0 14.07 0 7.14 0 0 Z " fill="#5C005E" transform="translate(2180,1061)"/>
<path d="M0 0 C5.61 0 11.22 0 17 0 C17 6.93 17 13.86 17 21 C25.91 21 34.82 21 44 21 C44 25.62 44 30.24 44 35 C35.09 35 26.18 35 17 35 C17.07413069 42.2596953 17.15708565 49.5181887 17.26245117 56.77734375 C17.29562363 59.24472749 17.32367926 61.71218571 17.34643555 64.1796875 C17.38012213 67.73469666 17.43244702 71.28902798 17.48828125 74.84375 C17.49467117 75.93989624 17.5010611 77.03604248 17.50764465 78.16540527 C17.62716887 84.44816469 18.24287235 89.31499662 21 95 C25.60614583 98.50944445 30.42559917 98.71046285 36 98 C39.08197864 97.18747836 42.0389171 96.17603293 45 95 C45.86604534 96.76505435 46.71748642 98.53728074 47.5625 100.3125 C48.03816406 101.29863281 48.51382812 102.28476563 49.00390625 103.30078125 C50 106 50 106 49 109 C47.2578125 110.1328125 47.2578125 110.1328125 45.125 111.125 C44.42632813 111.45757813 43.72765625 111.79015625 43.0078125 112.1328125 C35.64696783 115.31201 24.06171898 115.50665695 16.375 112.8125 C8.38748627 108.52290929 3.25092598 104.23955041 0.44801331 95.22467041 C-0.09814865 92.51262966 -0.11954177 89.98921216 -0.11352539 87.22167969 C-0.11344986 86.0607782 -0.11337433 84.89987671 -0.11329651 83.70379639 C-0.10813522 82.45576233 -0.10297394 81.20772827 -0.09765625 79.921875 C-0.0962413 78.64016418 -0.09482635 77.35845337 -0.09336853 76.03790283 C-0.08955901 72.6381636 -0.07974214 69.2384674 -0.06866455 65.83874512 C-0.05841674 62.366461 -0.0538637 58.8941699 -0.04882812 55.421875 C-0.03811841 48.61456392 -0.02053433 41.80728846 0 35 C-5.28 35 -10.56 35 -16 35 C-16 30.38 -16 25.76 -16 21 C-10.72 21 -5.44 21 0 21 C0 14.07 0 7.14 0 0 Z " fill="#5C005E" transform="translate(1139,1061)"/>
<path d="M0 0 C5.61 0 11.22 0 17 0 C17 6.93 17 13.86 17 21 C25.91 21 34.82 21 44 21 C44 25.62 44 30.24 44 35 C35.09 35 26.18 35 17 35 C17.07413069 42.2596953 17.15708565 49.5181887 17.26245117 56.77734375 C17.29562363 59.24472749 17.32367926 61.71218571 17.34643555 64.1796875 C17.38012213 67.73469666 17.43244702 71.28902798 17.48828125 74.84375 C17.49467117 75.93989624 17.5010611 77.03604248 17.50764465 78.16540527 C17.62716887 84.44816469 18.24287235 89.31499662 21 95 C25.60614583 98.50944445 30.42559917 98.71046285 36 98 C39.08197864 97.18747836 42.0389171 96.17603293 45 95 C45.86604534 96.76505435 46.71748642 98.53728074 47.5625 100.3125 C48.03816406 101.29863281 48.51382813 102.28476563 49.00390625 103.30078125 C50 106 50 106 49 109 C47.2578125 110.1328125 47.2578125 110.1328125 45.125 111.125 C44.42632813 111.45757813 43.72765625 111.79015625 43.0078125 112.1328125 C35.64696783 115.31201 24.06171898 115.50665695 16.375 112.8125 C8.38748627 108.52290929 3.25092598 104.23955041 0.44801331 95.22467041 C-0.09814865 92.51262966 -0.11954177 89.98921216 -0.11352539 87.22167969 C-0.11344986 86.0607782 -0.11337433 84.89987671 -0.11329651 83.70379639 C-0.10813522 82.45576233 -0.10297394 81.20772827 -0.09765625 79.921875 C-0.0962413 78.64016418 -0.09482635 77.35845337 -0.09336853 76.03790283 C-0.08955901 72.6381636 -0.07974214 69.2384674 -0.06866455 65.83874512 C-0.05841674 62.366461 -0.0538637 58.8941699 -0.04882812 55.421875 C-0.03811841 48.61456392 -0.02053433 41.80728846 0 35 C-5.28 35 -10.56 35 -16 35 C-16 30.38 -16 25.76 -16 21 C-10.72 21 -5.44 21 0 21 C0 14.07 0 7.14 0 0 Z " fill="#5C005E" transform="translate(619,1061)"/>
<path d="M0 0 C0 5.28 0 10.56 0 16 C-1.68416016 16.22042969 -1.68416016 16.22042969 -3.40234375 16.4453125 C-15.86652338 18.06961093 -15.86652338 18.06961093 -26 25 C-30.03579582 31.20062805 -32.08477802 37.04071343 -32.20532227 44.41113281 C-32.22526749 45.49195129 -32.24521271 46.57276978 -32.26576233 47.68634033 C-32.29083107 49.42714874 -32.29083107 49.42714874 -32.31640625 51.203125 C-32.33718735 52.39605164 -32.35796844 53.58897827 -32.37937927 54.8180542 C-32.44476239 58.62864423 -32.50370776 62.43930314 -32.5625 66.25 C-32.60569589 68.83334046 -32.64931052 71.41667395 -32.69335938 74 C-32.80043237 80.33326274 -32.90173174 86.66659477 -33 93 C-38.94 93 -44.88 93 -51 93 C-51 62.64 -51 32.28 -51 1 C-45.39 1 -39.78 1 -34 1 C-33.67 4.96 -33.34 8.92 -33 13 C-32.54625 12.29875 -32.0925 11.5975 -31.625 10.875 C-22.76520986 1.17142032 -12.45592554 -0.31139814 0 0 Z " fill="#5C005E" transform="translate(910,1081)"/>
<path d="M0 0 C4.27919398 2.51099873 7.31831179 5.53073802 9.3828125 10.08984375 C10.32558079 15.93304304 9.72131649 21.05018249 6.78125 26.2109375 C2.73880272 31.6422703 -2.930972 35.53595906 -8.6171875 39.08984375 C-1.27720336 47.74726094 6.25497743 56.16132888 14.3828125 64.08984375 C17.24315815 58.75053187 19.11412015 54.01040807 20.3828125 48.08984375 C22.6928125 48.74984375 25.0028125 49.40984375 27.3828125 50.08984375 C25.25410232 57.17834058 23.08565876 64.19758578 20.3828125 71.08984375 C24.3428125 75.04984375 28.3028125 79.00984375 32.3828125 83.08984375 C30.3828125 87.08984375 30.3828125 87.08984375 27.3828125 89.08984375 C23.7528125 85.12984375 20.1228125 81.16984375 16.3828125 77.08984375 C12.51923879 78.81951758 12.51923879 78.81951758 10.1953125 80.96484375 C0.29605821 88.44428032 -11.41112382 89.36492182 -23.4375 87.69921875 C-30.78153015 85.90349978 -36.52694093 81.52838262 -40.84375 75.328125 C-43.52056992 69.96197667 -43.5968047 64.23154538 -41.84375 58.609375 C-37.8344641 49.43919981 -30.03102042 43.18242683 -21.6171875 38.08984375 C-22.01550781 37.58195312 -22.41382813 37.0740625 -22.82421875 36.55078125 C-28.35305978 29.36732356 -31.83249029 23.37657086 -31.6171875 14.08984375 C-30.80553431 9.55877013 -29.19982137 6.27936163 -25.7421875 3.21484375 C-18.33254265 -1.82371475 -8.54904891 -2.97302746 0 0 Z M-21.5546875 8.15234375 C-24.32737296 12.10132001 -25.0262668 15.29318843 -24.6171875 20.08984375 C-22.89984204 25.6134695 -19.43499166 29.84783913 -15.6171875 34.08984375 C-8.62673331 33.15285165 -3.90220616 28.43198787 0.8828125 23.52734375 C2.727968 20.52896606 3.31219492 18.62072299 3.3828125 15.08984375 C2.24258075 11.54912412 1.17995849 8.94392874 -1.3671875 6.21484375 C-8.33258885 2.73214307 -15.38505285 3.82047261 -21.5546875 8.15234375 Z M-30.37890625 52.74609375 C-33.61664437 56.40191817 -35.56913252 60.09842145 -35.6484375 65.03515625 C-35.27315254 69.97015343 -33.96120256 73.31710882 -30.6171875 77.08984375 C-22.56374558 82.26587521 -14.44238957 83.08164761 -5.1171875 81.46484375 C0.02181698 80.20041383 4.42750688 77.58523011 8.3828125 74.08984375 C9.63715919 72.00130911 9.63715919 72.00130911 10.3828125 70.08984375 C9.95871094 69.67734375 9.53460937 69.26484375 9.09765625 68.83984375 C5.95966243 65.75012676 2.93351433 62.62456303 0.0703125 59.27734375 C-3.588901 55.01798589 -7.56102155 51.11141959 -11.578125 47.19140625 C-13.6171875 45.08984375 -13.6171875 45.08984375 -14.6171875 43.08984375 C-20.61400309 43.08984375 -26.1432192 48.76398441 -30.37890625 52.74609375 Z " fill="#5C005E" transform="translate(1026.6171875,1248.91015625)"/>
<path d="M0 0 C2.31 0 4.62 0 7 0 C7.33 12.87 7.66 25.74 8 39 C9.98 36.525 9.98 36.525 12 34 C20.44182013 27.26394971 29.46523024 26.20540666 40 27 C48.11232815 28.38135619 54.77523127 32.89324324 59.828125 39.328125 C66.10586797 49.01900977 66.96264859 58.73242033 65 70 C63.98549832 73.22140344 62.65867571 76.06450198 61 79 C60.1646875 80.5778125 60.1646875 80.5778125 59.3125 82.1875 C53.6629331 89.05859488 45.33865432 93.37798252 36.4921875 94.24609375 C26.70992937 94.50037263 18.7778786 92.14832767 11.38671875 85.5625 C10.22323947 84.40885294 9.10558943 83.20923843 8 82 C7.67 85.63 7.34 89.26 7 93 C4.69 93 2.38 93 0 93 C0 62.31 0 31.62 0 0 Z M16 39 C9.61274695 45.1675441 6.89563823 51.05154465 6.625 59.9375 C6.89729435 68.59646027 8.93707213 74.94135029 15 81.26953125 C21.20496188 86.63827756 27.70298215 87.72842936 35.78125 87.4453125 C42.52802103 86.5119 47.83390779 83.62350821 52.4375 78.625 C58.59427292 70.42759697 58.81243973 63.13353875 58 53 C56.573991 46.19029035 53.08158745 41.27487976 47.4375 37.3125 C37.45631003 31.46081905 25.02644637 31.40957919 16 39 Z " fill="#5C005E" transform="translate(1369,1243)"/>
<path d="M0 0 C5.94 0 11.88 0 18 0 C18 30.36 18 60.72 18 92 C12.06 92 6.12 92 0 92 C0 61.64 0 31.28 0 0 Z " fill="#5C005E" transform="translate(1208,1082)"/>
<path d="M0 0 C5.94 0 11.88 0 18 0 C18 30.36 18 60.72 18 92 C12.06 92 6.12 92 0 92 C0 61.64 0 31.28 0 0 Z " fill="#5C005E" transform="translate(345,1082)"/>
<path d="M0 0 C19.47 0 38.94 0 59 0 C59 2.31 59 4.62 59 7 C41.84 7 24.68 7 7 7 C7 17.89 7 28.78 7 40 C22.51 40 38.02 40 54 40 C54 42.31 54 44.62 54 47 C38.49 47 22.98 47 7 47 C7 58.55 7 70.1 7 82 C24.82 82 42.64 82 61 82 C61 83.98 61 85.96 61 88 C40.87 88 20.74 88 0 88 C0 58.96 0 29.92 0 0 Z " fill="#5C005E" transform="translate(1107,1248)"/>
<path d="M0 0 C19.47 0 38.94 0 59 0 C59 2.31 59 4.62 59 7 C41.84 7 24.68 7 7 7 C7 17.89 7 28.78 7 40 C22.51 40 38.02 40 54 40 C54 42.31 54 44.62 54 47 C38.49 47 22.98 47 7 47 C7 58.55 7 70.1 7 82 C24.82 82 42.64 82 61 82 C61 83.98 61 85.96 61 88 C40.87 88 20.74 88 0 88 C0 58.96 0 29.92 0 0 Z " fill="#5C005E" transform="translate(545,1248)"/>
<path d="M0 0 C8.35161373 5.56227319 14.31975028 12.18199973 16.7265625 22.07421875 C17.12145429 25.46910937 16.98828125 28.9064385 16.98828125 32.32421875 C-1.49171875 32.32421875 -19.97171875 32.32421875 -39.01171875 32.32421875 C-35.52130625 45.49223702 -35.52130625 45.49223702 -26.44921875 53.63671875 C-19.02413287 57.28176091 -9.90265845 57.97363722 -2.01171875 55.3125 C1.96876852 53.3400264 5.47375887 51.03564891 8.98828125 48.32421875 C10.36390979 49.61387051 11.69594518 50.95111168 12.98828125 52.32421875 C12.98828125 52.98421875 12.98828125 53.64421875 12.98828125 54.32421875 C4.85975075 61.90380953 -4.15065152 64.68225321 -15.109375 64.53515625 C-24.28652469 63.86817633 -32.39521241 60.10200042 -38.80078125 53.47265625 C-45.82690909 44.78517798 -47.09918063 35.19827667 -46.27929688 24.29589844 C-45.20004391 16.34330083 -41.11802899 8.631665 -34.86328125 3.59375 C-33.76113281 2.87251953 -33.76113281 2.87251953 -32.63671875 2.13671875 C-31.90710938 1.64816406 -31.1775 1.15960937 -30.42578125 0.65625 C-21.47998314 -4.2798619 -9.10960925 -4.8893383 0 0 Z M-32.54296875 10.58984375 C-37.01608729 15.87193054 -38.02702972 20.43139551 -39.01171875 27.32421875 C-22.84171875 27.32421875 -6.67171875 27.32421875 9.98828125 27.32421875 C7.9667855 17.21673999 6.68110942 13.20090289 -0.88671875 6.94921875 C-11.42489703 1.46936604 -23.69510984 2.15933668 -32.54296875 10.58984375 Z " fill="#5C005E" transform="translate(728.01171875,1272.67578125)"/>
<path d="M0 0 C2.31 0 4.62 0 7 0 C7.33 12.54 7.66 25.08 8 38 C9.98 35.525 9.98 35.525 12 33 C13.7109375 31.70703125 13.7109375 31.70703125 15.375 30.8125 C15.91898438 30.50957031 16.46296875 30.20664063 17.0234375 29.89453125 C25.6675609 25.9824675 35.40237252 25.37298804 44.4375 28.5 C50.95474817 31.55496008 55.12361869 36.26421112 57.57373047 42.98535156 C59.29210039 48.27909359 59.38419311 53.19712978 59.29296875 58.72265625 C59.28872391 59.70874374 59.28447906 60.69483124 59.28010559 61.71080017 C59.26345171 64.82832349 59.2258248 67.9451755 59.1875 71.0625 C59.17243597 73.18944372 59.15875059 75.31639768 59.14648438 77.44335938 C59.11359182 82.62916082 59.0619026 87.814467 59 93 C56.69 93 54.38 93 52 93 C51.9906543 91.74977051 51.98130859 90.49954102 51.97167969 89.21142578 C51.9315377 84.53317808 51.86571323 79.85557136 51.79248047 75.17773438 C51.76441047 73.1605661 51.74312708 71.14329069 51.72900391 69.12597656 C51.70737972 66.21103614 51.66063182 63.29736509 51.609375 60.3828125 C51.60814636 59.49385284 51.60691772 58.60489319 51.60565186 57.68899536 C51.45882353 51.28426603 50.2092907 45.60992406 47 40 C42.11292418 35.38358579 36.63865711 33.81315038 30 34 C23.40640045 34.57643432 17.648668 36.06697199 13 41 C9.72099752 46.02847026 7.92775436 51.11851728 7.79467773 57.12597656 C7.77473251 57.92650452 7.75478729 58.72703247 7.73423767 59.55181885 C7.71752518 60.40612488 7.70081268 61.26043091 7.68359375 62.140625 C7.66281265 63.02280701 7.64203156 63.90498901 7.62062073 64.81390381 C7.55535133 67.62585831 7.49634553 70.43790445 7.4375 73.25 C7.39429327 75.15886356 7.35067829 77.06771793 7.30664062 78.9765625 C7.19969313 83.65094826 7.09836215 88.32542602 7 93 C4.69 93 2.38 93 0 93 C0 62.31 0 31.62 0 0 Z " fill="#5C005E" transform="translate(1252,1243)"/>
<path d="M0 0 C1.12148437 0.60328125 1.12148437 0.60328125 2.265625 1.21875 C10.04871514 5.8576779 14.26768899 11.86931774 16.875 20.5 C19.24169725 30.64298823 18.24086843 40.16643683 13.125 49.375 C6.98248472 56.96281299 -0.10382486 62.73216262 -10 64 C-21.28672437 64.93776938 -30.24830087 62.28484184 -39 55 C-46.60147988 47.15010574 -48.52770056 38.64443929 -48.4152832 27.94873047 C-48.03522312 17.99700331 -44.48115075 11.32191486 -37.6015625 4.20703125 C-27.60317933 -4.2750806 -11.65609336 -6.57523215 0 0 Z M-32.24609375 9.296875 C-38.4858003 15.35592189 -40.99416186 21.57779296 -41.375 30.3125 C-41.22444153 37.61960448 -38.77773629 43.22882283 -34.875 49.3125 C-29.01554738 54.78981441 -23.37571654 57.29586794 -15.3125 57.5 C-7.15595419 57.12751137 -1.71569923 54.52809131 4.19921875 48.9921875 C10.22490703 42.32602476 10.57815136 35.28269677 10.32421875 26.53515625 C9.72033615 19.95065325 7.75853663 14.75853663 3 10 C-7.49151145 1.44767787 -21.67847912 0.50120383 -32.24609375 9.296875 Z " fill="#5C005E" transform="translate(1608,1273)"/>
<path d="M0 0 C2.31 0 4.62 0 7 0 C7.33 3.3 7.66 6.6 8 10 C9.134375 8.906875 10.26875 7.81375 11.4375 6.6875 C18.81196987 0.3297546 25.9506478 -0.59878373 35.5625 -0.33984375 C43.75545211 0.47014129 49.14374869 3.33447331 54.52734375 9.51171875 C58.73034827 16.61334708 59.42682545 23.61485785 59.29296875 31.72265625 C59.28872391 32.70874374 59.28447906 33.69483124 59.28010559 34.71080017 C59.26345171 37.82832349 59.2258248 40.9451755 59.1875 44.0625 C59.17243597 46.18944372 59.15875059 48.31639768 59.14648438 50.44335938 C59.11359182 55.62916082 59.0619026 60.814467 59 66 C56.69 66 54.38 66 52 66 C51.9906543 64.74977051 51.98130859 63.49954102 51.97167969 62.21142578 C51.9315377 57.53317808 51.86571323 52.85557136 51.79248047 48.17773438 C51.76441047 46.1605661 51.74312708 44.14329069 51.72900391 42.12597656 C51.70737972 39.21103614 51.66063182 36.29736509 51.609375 33.3828125 C51.60814636 32.49385284 51.60691772 31.60489319 51.60565186 30.68899536 C51.45882353 24.28426603 50.2092907 18.60992406 47 13 C42.11292418 8.38358579 36.63865711 6.81315038 30 7 C23.40640045 7.57643432 17.648668 9.06697199 13 14 C9.72099752 19.02847026 7.92775436 24.11851728 7.79467773 30.12597656 C7.77473251 30.92650452 7.75478729 31.72703247 7.73423767 32.55181885 C7.71752518 33.40612488 7.70081268 34.26043091 7.68359375 35.140625 C7.66281265 36.02280701 7.64203156 36.90498901 7.62062073 37.81390381 C7.55535133 40.62585831 7.49634553 43.43790445 7.4375 46.25 C7.39429327 48.15886356 7.35067829 50.06771793 7.30664062 51.9765625 C7.19969313 56.65094826 7.09836215 61.32542602 7 66 C4.69 66 2.38 66 0 66 C0 44.22 0 22.44 0 0 Z " fill="#5C005E" transform="translate(1645,1270)"/>
<path d="M0 0 C2.31 0 4.62 0 7 0 C7.33 3.3 7.66 6.6 8 10 C9.134375 8.906875 10.26875 7.81375 11.4375 6.6875 C18.81196987 0.3297546 25.9506478 -0.59878373 35.5625 -0.33984375 C43.75545211 0.47014129 49.14374869 3.33447331 54.52734375 9.51171875 C58.73034827 16.61334708 59.42682545 23.61485785 59.29296875 31.72265625 C59.28872391 32.70874374 59.28447906 33.69483124 59.28010559 34.71080017 C59.26345171 37.82832349 59.2258248 40.9451755 59.1875 44.0625 C59.17243597 46.18944372 59.15875059 48.31639768 59.14648438 50.44335938 C59.11359182 55.62916082 59.0619026 60.814467 59 66 C56.69 66 54.38 66 52 66 C51.9906543 64.74977051 51.98130859 63.49954102 51.97167969 62.21142578 C51.9315377 57.53317808 51.86571323 52.85557136 51.79248047 48.17773438 C51.76441047 46.1605661 51.74312708 44.14329069 51.72900391 42.12597656 C51.70737972 39.21103614 51.66063182 36.29736509 51.609375 33.3828125 C51.60814636 32.49385284 51.60691772 31.60489319 51.60565186 30.68899536 C51.45882353 24.28426603 50.2092907 18.60992406 47 13 C42.11292418 8.38358579 36.63865711 6.81315038 30 7 C23.40640045 7.57643432 17.648668 9.06697199 13 14 C9.72099752 19.02847026 7.92775436 24.11851728 7.79467773 30.12597656 C7.77473251 30.92650452 7.75478729 31.72703247 7.73423767 32.55181885 C7.71752518 33.40612488 7.70081268 34.26043091 7.68359375 35.140625 C7.66281265 36.02280701 7.64203156 36.90498901 7.62062073 37.81390381 C7.55535133 40.62585831 7.49634553 43.43790445 7.4375 46.25 C7.39429327 48.15886356 7.35067829 50.06771793 7.30664062 51.9765625 C7.19969313 56.65094826 7.09836215 61.32542602 7 66 C4.69 66 2.38 66 0 66 C0 44.22 0 22.44 0 0 Z " fill="#5C005E" transform="translate(764,1270)"/>
<path d="M0 0 C1.82421875 1.63671875 1.82421875 1.63671875 3 3 C2.01 4.65 1.02 6.3 0 8 C-0.70511719 7.70351562 -1.41023438 7.40703125 -2.13671875 7.1015625 C-12.15715773 3.24649594 -21.78517366 1.21185317 -32.078125 5.02734375 C-35.00122738 6.50671874 -35.94992843 7.91979006 -37 11 C-37.25926574 14.75935317 -37.19211438 17.42365687 -36 21 C-34.25223421 21.9429423 -34.25223421 21.9429423 -32.07421875 22.53125 C-31.26001465 22.77875 -30.44581055 23.02625 -29.60693359 23.28125 C-24.50128924 24.6889122 -19.35633227 25.91106198 -14.19726562 27.10546875 C-6.13021721 29.04353547 -0.99645268 31.29047784 4 38 C5.74128861 41.48257722 5.44943728 45.19226753 5 49 C3.27697797 53.81322459 0.3501855 57.352061 -4 60 C-15.18353028 64.94205529 -27.70298662 64.14223824 -39 60 C-42.28025114 58.53560217 -45.0147465 56.990169 -48 55 C-47.34 53.35 -46.68 51.7 -46 50 C-42.1495999 50 -40.81843504 50.34078725 -37.5 51.9375 C-31.79531862 54.66285292 -26.93850035 55.20660825 -20.625 55.25 C-19.8825 55.270625 -19.14 55.29125 -18.375 55.3125 C-13.49537989 55.34698495 -10.25012378 54.64509214 -6 52 C-3.15386732 49.15386732 -3.20135576 46.95999656 -3 43 C-4.38506025 39.90452977 -5.31846716 38.35376414 -8.35546875 36.77734375 C-9.29003906 36.50019531 -10.22460938 36.22304687 -11.1875 35.9375 C-12.24582031 35.6178125 -13.30414062 35.298125 -14.39453125 34.96875 C-19.03883032 33.72087766 -23.70013471 32.54152273 -28.39135742 31.48217773 C-35.2564951 29.87643367 -39.93289785 27.87470311 -44 22 C-46.10969273 17.78061454 -45.50460804 12.58254514 -45 8 C-42.95504873 2.60094641 -39.0648998 0.0493603 -33.96484375 -2.2734375 C-23.35479562 -6.19683502 -10.02586809 -4.97136743 0 0 Z " fill="#5C005E" transform="translate(1767,1274)"/>
<path d="M0 0 C1.82421875 1.63671875 1.82421875 1.63671875 3 3 C2.01 4.65 1.02 6.3 0 8 C-0.70511719 7.70351562 -1.41023437 7.40703125 -2.13671875 7.1015625 C-12.15715773 3.24649594 -21.78517366 1.21185317 -32.078125 5.02734375 C-35.00122738 6.50671874 -35.94992843 7.91979006 -37 11 C-37.25926574 14.75935317 -37.19211438 17.42365687 -36 21 C-34.25223421 21.9429423 -34.25223421 21.9429423 -32.07421875 22.53125 C-31.26001465 22.77875 -30.44581055 23.02625 -29.60693359 23.28125 C-24.50128924 24.6889122 -19.35633227 25.91106198 -14.19726562 27.10546875 C-6.13021721 29.04353547 -0.99645268 31.29047784 4 38 C5.74128861 41.48257722 5.44943728 45.19226753 5 49 C3.27697797 53.81322459 0.3501855 57.352061 -4 60 C-15.18353028 64.94205529 -27.70298662 64.14223824 -39 60 C-42.28025114 58.53560217 -45.0147465 56.990169 -48 55 C-47.34 53.35 -46.68 51.7 -46 50 C-42.1495999 50 -40.81843504 50.34078725 -37.5 51.9375 C-31.79531862 54.66285292 -26.93850035 55.20660825 -20.625 55.25 C-19.8825 55.270625 -19.14 55.29125 -18.375 55.3125 C-13.49537989 55.34698495 -10.25012378 54.64509214 -6 52 C-3.15386732 49.15386732 -3.20135576 46.95999656 -3 43 C-4.38506025 39.90452977 -5.31846716 38.35376414 -8.35546875 36.77734375 C-9.29003906 36.50019531 -10.22460938 36.22304687 -11.1875 35.9375 C-12.24582031 35.6178125 -13.30414062 35.298125 -14.39453125 34.96875 C-19.03883032 33.72087766 -23.70013471 32.54152273 -28.39135742 31.48217773 C-35.2564951 29.87643367 -39.93289785 27.87470311 -44 22 C-46.10969273 17.78061454 -45.50460804 12.58254514 -45 8 C-42.95504873 2.60094641 -39.0648998 0.0493603 -33.96484375 -2.2734375 C-23.35479562 -6.19683502 -10.02586809 -4.97136743 0 0 Z " fill="#5C005E" transform="translate(936,1274)"/>
<path d="M0 0 C3.10768131 -0.46444468 5.00107097 -0.70996128 8 0 C10.92327517 2.42870753 12.96025077 5.396382 15.125 8.5 C15.70636719 9.29148437 16.28773437 10.08296875 16.88671875 10.8984375 C18.04223519 12.47531676 19.18730353 14.05991063 20.32128906 15.65234375 C22.82026664 19.14713264 25.40875098 22.57335971 28 26 C32.03828867 22.26854208 35.20462765 17.93764855 38.5 13.5625 C40.17343744 11.35212062 41.84786181 9.14274047 43.53222656 6.94067383 C44.76495006 5.31078043 45.95773239 3.65078575 47.140625 1.984375 C49 0 49 0 51.140625 -0.48828125 C51.83671875 -0.43027344 52.5328125 -0.37226562 53.25 -0.3125 C54.4875 -0.209375 55.725 -0.10625 57 0 C54.0628598 5.50892882 50.62583832 10.15769661 46.625 14.9375 C44.40283168 17.61396675 42.19567892 20.3017661 40 23 C39.41057617 23.70785645 38.82115234 24.41571289 38.21386719 25.14501953 C37.65602539 25.84095215 37.09818359 26.53688477 36.5234375 27.25390625 C36.01474121 27.87724854 35.50604492 28.50059082 34.98193359 29.14282227 C33.810892 30.95000048 33.810892 30.95000048 34.18041992 33.01953125 C35.07315753 35.17678102 36.08978445 36.64698629 37.58984375 38.43359375 C38.12262939 39.0766748 38.65541504 39.71975586 39.2043457 40.38232422 C39.77628662 41.06053223 40.34822754 41.73874023 40.9375 42.4375 C42.11843583 43.86485351 43.29810622 45.29325487 44.4765625 46.72265625 C45.06727539 47.43695801 45.65798828 48.15125977 46.26660156 48.88720703 C48.83065744 52.01246613 51.33486388 55.18098302 53.8125 58.375 C54.62332031 59.41398437 55.43414063 60.45296875 56.26953125 61.5234375 C58 64 58 64 58 66 C54.65021661 66.74439631 53.2135998 67.00001809 50 66 C46.12300433 62.42696079 43.09705696 58.24053054 40 54 C39.15807217 52.87753717 38.31435057 51.75641734 37.46875 50.63671875 C35.93260101 48.60074815 34.4165 46.55467241 32.91015625 44.49609375 C31.36209193 42.47316308 29.81565083 40.76749033 28 39 C27.61255615 39.49814209 27.2251123 39.99628418 26.82592773 40.50952148 C17.74609375 52.18359375 17.74609375 52.18359375 15.87280273 54.57202148 C14.5988508 56.22362519 13.35170304 57.89617769 12.12915039 59.58618164 C11.52965576 60.4033667 10.93016113 61.22055176 10.3125 62.0625 C9.51585937 63.17625 9.51585937 63.17625 8.703125 64.3125 C6.5928212 66.40344321 5.49399295 66.5625 2.5625 66.5625 C0.7990625 66.2840625 0.7990625 66.2840625 -1 66 C0.32417748 63.1763347 1.81284248 60.77502724 3.72265625 58.3125 C4.25737549 57.61890381 4.79209473 56.92530762 5.34301758 56.21069336 C5.91044678 55.48116455 6.47787598 54.75163574 7.0625 54 C8.2348306 52.48082022 9.40670271 50.96128652 10.578125 49.44140625 C11.15626953 48.69262207 11.73441406 47.94383789 12.33007812 47.17236328 C14.68226238 44.11246043 17.00201178 41.02895134 19.3125 37.9375 C20.03050781 36.97714844 20.74851562 36.01679687 21.48828125 35.02734375 C21.98714844 34.35832031 22.48601562 33.68929688 23 33 C21.30085623 29.05142159 18.66931021 25.88524706 16 22.5625 C15.01389093 21.31935296 14.02822466 20.07585457 13.04296875 18.83203125 C12.54071777 18.19990723 12.0384668 17.5677832 11.52099609 16.91650391 C9.10444559 13.87157269 6.70146174 10.81661664 4.3125 7.75 C3.6618457 6.92737671 3.6618457 6.92737671 2.99804688 6.08813477 C0 2.22869963 0 2.22869963 0 0 Z " fill="#5C005E" transform="translate(1178,1270)"/>
<path d="M0 0 C2.31 0 4.62 0 7 0 C12.60288593 10.95673349 17.84993892 22.04070061 22.86669922 33.27758789 C24.02035409 35.85802704 25.1838042 38.43391216 26.34765625 41.00976562 C27.08652604 42.65859056 27.82482969 44.30766933 28.5625 45.95703125 C28.90925781 46.72255814 29.25601563 47.48808502 29.61328125 48.27680969 C32 53.65621179 32 53.65621179 32 57 C32.66 57 33.32 57 34 57 C34.09587402 56.33137939 34.19174805 55.66275879 34.29052734 54.97387695 C35.18450751 51.22660496 36.72592506 47.89010092 38.3515625 44.41796875 C38.68868256 43.68612869 39.02580261 42.95428864 39.37313843 42.20027161 C40.45206942 39.86032119 41.53816355 37.52378761 42.625 35.1875 C44.0362208 32.14041376 45.44426481 29.09186852 46.8515625 26.04296875 C47.19753479 25.29530243 47.54350708 24.54763611 47.89996338 23.77731323 C50.63826282 17.84000215 53.27516782 11.86187885 55.84927368 5.85160828 C57.89606538 1.10393462 57.89606538 1.10393462 59 0 C61.33297433 -0.04092937 63.66705225 -0.04241723 66 0 C63.34372347 8.93842104 59.34893612 17.24929918 55.4375 25.6875 C54.71760351 27.24952762 53.99820553 28.81178508 53.27929688 30.37426758 C51.8531993 33.47300165 50.42513652 36.57081726 48.99560547 39.66796875 C46.30729079 45.49732974 43.65112523 51.34113647 41 57.1875 C40.20834219 58.93099361 39.41667661 60.67448368 38.625 62.41796875 C38.08875 63.60003906 37.5525 64.78210937 37 66 C34.36 66 31.72 66 29 66 C24.27612509 55.91543746 19.59801101 45.81073559 14.96557617 35.68383789 C13.93634156 33.43496882 12.90470466 31.18721141 11.87304688 28.93945312 C8.69219466 21.99671265 5.54157715 15.0419207 2.50390625 8.03515625 C2.01865479 6.91633057 1.53340332 5.79750488 1.03344727 4.64477539 C0 2 0 2 0 0 Z " fill="#5C005E" transform="translate(612,1270)"/>
<path d="M0 0 C2.31 0 4.62 0 7 0 C7 4.62 7 9.24 7 14 C13.93 14 20.86 14 28 14 C28 16.31 28 18.62 28 21 C21.07 21 14.14 21 7 21 C7.09724057 26.97773595 7.20016199 32.95482764 7.31738281 38.93212891 C7.35552416 40.96299391 7.3904022 42.99392305 7.421875 45.02490234 C7.4678494 47.95433381 7.52578891 50.88332933 7.5859375 53.8125 C7.59748871 54.71178223 7.60903992 55.61106445 7.62094116 56.53759766 C7.74696057 61.99379717 8.48052154 66.75380069 10 72 C16.02432222 73.7758773 19.93733372 74.25864038 26 72 C27.33130115 71.65864073 28.66358148 71.32074044 30 71 C30.66 72.98 31.32 74.96 32 77 C25.78515833 80.97059329 20.31695252 81.78003548 13 81 C8.33133683 79.60577465 5.60323342 77.75790865 2.5625 73.9375 C0.57106259 70.19359767 -0.1247248 67.52235019 -0.11352539 63.3449707 C-0.11344986 62.40422195 -0.11337433 61.46347321 -0.11329651 60.49421692 C-0.10813522 59.48163315 -0.10297394 58.46904938 -0.09765625 57.42578125 C-0.0962413 56.38681198 -0.09482635 55.34784271 -0.09336853 54.27738953 C-0.08776656 50.95573052 -0.07521372 47.63413867 -0.0625 44.3125 C-0.05748525 42.06184993 -0.0529223 39.81119881 -0.04882812 37.56054688 C-0.03779648 32.04033867 -0.02053051 26.52018072 0 21 C-3.96 21 -7.92 21 -12 21 C-12 18.69 -12 16.38 -12 14 C-8.04 14 -4.08 14 0 14 C0 9.38 0 4.76 0 0 Z " fill="#5C005E" transform="translate(1485,1256)"/>
<path d="M0 0 C2.31 0 4.62 0 7 0 C7 4.62 7 9.24 7 14 C13.93 14 20.86 14 28 14 C28 16.31 28 18.62 28 21 C21.07 21 14.14 21 7 21 C7.09724057 26.97773595 7.20016199 32.95482764 7.31738281 38.93212891 C7.35552416 40.96299391 7.3904022 42.99392305 7.421875 45.02490234 C7.4678494 47.95433381 7.52578891 50.88332933 7.5859375 53.8125 C7.59748871 54.71178223 7.60903992 55.61106445 7.62094116 56.53759766 C7.74696057 61.99379717 8.48052154 66.75380069 10 72 C16.02432222 73.7758773 19.93733372 74.25864038 26 72 C27.33130115 71.65864073 28.66358148 71.32074044 30 71 C30.66 72.98 31.32 74.96 32 77 C25.78515833 80.97059329 20.31695252 81.78003548 13 81 C8.33133683 79.60577465 5.60323342 77.75790865 2.5625 73.9375 C0.57106259 70.19359767 -0.1247248 67.52235019 -0.11352539 63.3449707 C-0.11344986 62.40422195 -0.11337433 61.46347321 -0.11329651 60.49421692 C-0.10813522 59.48163315 -0.10297394 58.46904938 -0.09765625 57.42578125 C-0.0962413 56.38681198 -0.09482635 55.34784271 -0.09336853 54.27738953 C-0.08776656 50.95573052 -0.07521372 47.63413867 -0.0625 44.3125 C-0.05748525 42.06184993 -0.0529223 39.81119881 -0.04882812 37.56054688 C-0.03779648 32.04033867 -0.02053051 26.52018072 0 21 C-3.96 21 -7.92 21 -12 21 C-12 18.69 -12 16.38 -12 14 C-8.04 14 -4.08 14 0 14 C0 9.38 0 4.76 0 0 Z " fill="#5C005E" transform="translate(850,1256)"/>
<path d="M0 0 C2.31 0 4.62 0 7 0 C7 21.78 7 43.56 7 66 C4.69 66 2.38 66 0 66 C0 44.22 0 22.44 0 0 Z " fill="#5C005E" transform="translate(1534,1270)"/>
<path d="M0 0 C2.31 0 4.62 0 7 0 C7 21.78 7 43.56 7 66 C4.69 66 2.38 66 0 66 C0 44.22 0 22.44 0 0 Z " fill="#5C005E" transform="translate(1453,1270)"/>
<path d="M0 0 C2.31 0 4.62 0 7 0 C7 21.78 7 43.56 7 66 C4.69 66 2.38 66 0 66 C0 44.22 0 22.44 0 0 Z " fill="#5C005E" transform="translate(1336,1270)"/>
<path d="M0 0 C3.50750253 0.05527583 5.98148628 0.258811 8.875 2.3125 C12.01807154 6.26148732 12.85977392 9.3612647 12.3125 14.375 C10.35414766 18.22176353 8.89800738 19.98466175 5.3125 22.375 C0.42733856 23.08707438 -3.4975735 23.10352643 -7.75 20.5 C-11.14589982 16.77546472 -11.07199302 13.75222222 -11.05078125 8.859375 C-10.50683598 5.1394912 -8.60326392 3.57960199 -5.6875 1.375 C-4.05531064 -0.25718936 -2.24806873 0.08736889 0 0 Z " fill="#5C005E" transform="translate(1216.6875,1043.625)"/>
<path d="M0 0 C3.50750253 0.05527583 5.98148628 0.258811 8.875 2.3125 C12.01807154 6.26148732 12.85977392 9.3612647 12.3125 14.375 C10.35414766 18.22176353 8.89800738 19.98466175 5.3125 22.375 C0.42733856 23.08707438 -3.4975735 23.10352643 -7.75 20.5 C-11.14589982 16.77546472 -11.07199302 13.75222222 -11.05078125 8.859375 C-10.50683598 5.1394912 -8.60326392 3.57960199 -5.6875 1.375 C-4.05531064 -0.25718936 -2.24806873 0.08736889 0 0 Z " fill="#5C005E" transform="translate(353.6875,1043.625)"/>
<path d="M0 0 C0.66 0.66 1.32 1.32 2 2 C1.75 5.5625 1.75 5.5625 1 9 C-1.76250036 10.38125018 -3.94731099 10.19079306 -7 10 C-9 8 -9 8 -9.375 5.0625 C-9 2 -9 2 -7.3125 0.0625 C-4.38550346 -1.28233625 -3.01415011 -1.03115662 0 0 Z " fill="#5C005E" transform="translate(1541,1245)"/>
<path d="M0 0 C0.66 0.66 1.32 1.32 2 2 C1.75 5.5625 1.75 5.5625 1 9 C-1.76250036 10.38125018 -3.94731099 10.19079306 -7 10 C-9 8 -9 8 -9.375 5.0625 C-9 2 -9 2 -7.3125 0.0625 C-4.38550346 -1.28233625 -3.01415011 -1.03115662 0 0 Z " fill="#5C005E" transform="translate(1460,1245)"/>
<path d="M0 0 C0.66 0.66 1.32 1.32 2 2 C1.75 5.5625 1.75 5.5625 1 9 C-1.76250036 10.38125018 -3.94731099 10.19079306 -7 10 C-9 8 -9 8 -9.375 5.0625 C-9 2 -9 2 -7.3125 0.0625 C-4.38550346 -1.28233625 -3.01415011 -1.03115662 0 0 Z " fill="#5C005E" transform="translate(1343,1245)"/>
</svg>
